<?xml version="1.0" standalone="no"?>
<!DOCTYPE svg PUBLIC "-//W3C//DTD SVG 20010904//EN"
 "http://www.w3.org/TR/2001/REC-SVG-20010904/DTD/svg10.dtd">
<svg version="1.0" xmlns="http://www.w3.org/2000/svg"
 width="500.000000pt" height="500.000000pt" viewBox="0 0 500.000000 500.000000"
 preserveAspectRatio="xMidYMid meet">
<metadata>
Created by potrace 1.11, written by Peter Selinger 2001-2013
</metadata>
<g transform="translate(0.000000,500.000000) scale(0.100000,-0.100000)"
fill="#000000" stroke="none">
<path d="M2520 4916 c7 -7 13 -7 20 0 6 6 3 10 -10 10 -13 0 -16 -4 -10 -10z"/>
<path d="M2577 4919 c7 -7 15 -10 18 -7 3 3 -2 9 -12 12 -14 6 -15 5 -6 -5z"/>
<path d="M2277 4904 c5 -14 3 -15 -14 -6 -14 8 -23 8 -31 0 -9 -9 -12 -9 -12
1 0 7 -9 3 -19 -10 -17 -21 -20 -22 -26 -7 -6 16 -9 15 -36 -4 -15 -12 -26
-25 -23 -29 2 -4 -1 -11 -7 -15 -8 -5 -9 -3 -4 6 5 8 3 11 -6 8 -8 -3 -13 -14
-12 -24 1 -16 -2 -15 -15 5 -36 53 -49 65 -56 52 -4 -7 -2 -10 5 -9 6 2 13 -2
16 -8 2 -7 -9 -10 -30 -9 -23 2 -34 -2 -34 -11 0 -7 4 -11 9 -8 4 3 8 0 8 -5
0 -15 -13 -14 -29 2 -11 10 -12 9 -6 -2 5 -9 4 -12 -3 -8 -13 9 -44 -2 -37
-13 2 -4 16 -6 31 -4 14 1 23 0 20 -4 -8 -7 -65 -10 -64 -3 2 18 -3 31 -12 31
-5 0 -6 -7 -3 -17 5 -12 3 -14 -8 -7 -21 13 -49 15 -49 3 0 -5 4 -8 8 -5 4 2
8 -4 9 -14 2 -17 0 -17 -17 -3 -10 9 -17 21 -16 27 2 6 1 8 -1 3 -3 -4 -9 -4
-15 -1 -5 3 -4 -3 3 -13 9 -15 9 -24 0 -39 -11 -18 -12 -18 -6 3 3 12 1 25 -6
29 -7 4 -9 3 -5 -4 16 -26 -53 -33 -83 -9 -12 10 -12 9 -1 -10 8 -12 17 -20
21 -17 4 2 10 0 13 -5 4 -5 -2 -8 -11 -7 -10 2 -22 -2 -26 -8 -6 -7 -7 -4 -3
6 3 10 0 20 -6 24 -7 4 -8 3 -4 -4 4 -7 2 -12 -4 -12 -6 0 -9 -3 -7 -7 3 -5
-2 -15 -11 -23 -14 -13 -15 -13 -11 0 3 8 -3 23 -13 33 -20 19 -26 9 -6 -11 9
-9 5 -11 -19 -9 -25 3 -30 1 -26 -13 3 -10 -1 -21 -8 -25 -8 -6 -10 -4 -4 5 5
8 3 11 -6 8 -8 -3 -13 -10 -12 -16 2 -6 -4 -9 -12 -5 -13 4 -13 8 -3 21 11 13
11 14 -2 7 -8 -6 -18 -10 -22 -10 -3 0 -10 -4 -15 -9 -5 -5 -3 -6 5 -2 14 8
17 -20 3 -29 -12 -7 -33 29 -23 40 4 5 2 5 -5 1 -7 -4 -9 -14 -6 -23 5 -12 3
-14 -7 -8 -9 5 -11 4 -6 -4 4 -6 13 -8 19 -4 7 4 5 -1 -2 -11 -14 -17 -16 -17
-27 -1 -12 16 -14 15 -20 -9 -3 -14 -10 -26 -16 -26 -5 0 -6 -5 -2 -12 5 -7 3
-8 -6 -3 -7 4 -16 2 -21 -6 -7 -11 -9 -11 -9 -1 0 7 -5 10 -12 6 -7 -5 -8 -2
-3 7 5 8 5 11 0 7 -4 -4 -16 3 -27 15 -19 22 -19 22 -1 -8 9 -16 22 -34 28
-38 6 -5 3 -7 -7 -4 -17 6 -42 -14 -33 -26 3 -4 2 -5 -2 -2 -3 3 -13 -1 -22
-7 -13 -10 -13 -9 1 7 16 19 16 20 -12 20 -16 1 -28 -4 -27 -9 1 -6 -2 -11 -8
-11 -24 -4 -45 -18 -50 -35 -3 -11 -12 -17 -20 -14 -7 3 -16 0 -21 -7 -5 -8
-3 -10 6 -4 9 5 11 4 6 -3 -4 -7 -14 -12 -22 -12 -8 0 -13 -4 -10 -9 3 -5 -1
-12 -10 -15 -8 -3 -12 -2 -9 4 3 6 1 10 -4 10 -10 0 -16 -22 -11 -45 1 -5 -7
-2 -17 7 -13 12 -23 14 -33 7 -12 -8 -12 -9 4 -7 10 2 21 -2 23 -8 2 -8 -8
-10 -29 -8 -23 3 -29 1 -18 -5 8 -6 18 -7 22 -5 4 3 8 0 8 -5 0 -13 -2 -13
-34 -1 -24 9 -25 8 -14 -10 7 -10 17 -16 23 -12 5 3 4 -2 -4 -11 -15 -18 -26
-23 -16 -7 3 6 2 10 -3 10 -17 0 -22 -13 -10 -29 7 -9 3 -8 -8 3 -13 13 -15
20 -6 23 14 5 16 23 3 23 -5 0 -13 -10 -16 -21 -5 -15 -9 -18 -15 -9 -5 9 -9
9 -14 1 -4 -6 -2 -11 4 -11 6 0 8 -5 4 -12 -6 -10 -4 -10 8 0 13 10 17 10 21
-2 4 -10 1 -13 -9 -9 -12 5 -19 -7 -15 -29 0 -5 -4 -8 -10 -8 -6 0 -8 8 -4 19
6 21 -10 38 -20 21 -4 -6 -11 -8 -16 -4 -5 3 -8 0 -7 -7 2 -7 -4 -13 -12 -14
-8 0 -14 -8 -12 -17 1 -9 -5 -26 -15 -38 -10 -11 -18 -28 -18 -37 0 -13 -10
-18 -35 -20 -19 -2 -38 -10 -43 -18 -4 -9 -12 -13 -18 -10 -5 4 -9 1 -9 -4 0
-16 11 -13 33 7 11 9 17 12 14 5 -4 -6 -1 -14 5 -17 7 -3 4 -4 -7 -3 -11 1
-19 -3 -18 -10 2 -7 -11 -22 -28 -34 -18 -13 -28 -27 -25 -36 4 -8 1 -11 -5
-8 -6 4 -8 13 -6 19 3 7 1 19 -4 27 -8 12 -10 12 -8 -1 3 -28 -1 -41 -11 -35
-5 3 -7 13 -4 23 5 15 4 15 -6 -1 -6 -9 -16 -14 -22 -11 -7 4 -8 2 -4 -5 4 -6
12 -9 17 -6 5 4 12 -1 15 -9 3 -9 11 -13 18 -9 6 3 7 2 3 -3 -5 -5 -12 -9 -15
-9 -10 0 -60 -52 -76 -78 -8 -12 -12 -30 -11 -39 2 -10 -2 -16 -8 -15 -6 1
-12 -4 -13 -10 -1 -7 -2 -18 -3 -24 0 -5 -6 -7 -12 -3 -6 3 -7 9 -3 13 14 10
14 29 0 34 -9 4 -14 -5 -15 -26 -3 -53 -4 -57 -9 -52 -3 3 -11 0 -19 -6 -8 -8
-13 -8 -13 -1 0 6 5 12 11 14 5 2 12 16 13 31 3 28 -13 24 -17 -4 -4 -22 -18
-40 -27 -34 -5 3 -11 2 -14 -3 -5 -9 9 -12 54 -13 l25 -1 -28 -14 c-15 -8 -25
-18 -23 -23 3 -4 -1 -8 -9 -8 -11 0 -12 4 -4 13 7 8 6 14 -2 20 -7 4 -9 3 -5
-4 3 -6 2 -13 -4 -17 -15 -10 -12 -23 7 -28 14 -4 12 -5 -4 -6 -13 0 -23 4
-23 11 0 6 -7 3 -15 -8 -13 -17 -12 -21 5 -35 16 -14 17 -18 5 -23 -8 -3 -14
-9 -13 -13 2 -4 -1 -8 -7 -8 -5 0 -9 3 -8 7 3 9 -25 4 -34 -7 -4 -4 -2 -5 6 0
9 5 12 3 9 -6 -3 -8 -11 -13 -18 -11 -11 2 -10 -1 0 -15 22 -28 24 -29 17 -11
-3 10 -2 20 3 23 16 10 20 -12 6 -31 -11 -14 -12 -22 -3 -34 6 -8 2 -6 -11 4
-24 21 -29 32 -9 20 8 -5 8 -2 -2 9 -14 18 -26 24 -17 8 3 -5 -1 -14 -9 -21
-17 -14 -20 -30 -4 -30 5 0 8 4 4 9 -3 5 -1 12 5 16 5 3 10 0 11 -7 0 -7 2
-21 4 -31 3 -15 1 -16 -12 -6 -12 11 -14 10 -12 -2 3 -21 -21 -79 -33 -79 -6
0 -5 6 2 15 7 8 9 15 5 15 -5 0 0 9 10 20 10 11 13 20 7 20 -7 0 -12 -5 -12
-11 0 -5 -5 -7 -10 -4 -6 4 -9 1 -8 -7 2 -7 -3 -12 -11 -10 -12 3 -12 0 -2
-12 11 -13 10 -17 -3 -22 -13 -5 -13 -9 7 -26 21 -18 21 -19 1 -9 -24 12 -35
6 -27 -15 3 -8 0 -14 -6 -14 -7 0 -11 -6 -10 -12 3 -26 -1 -39 -10 -33 -6 3
-8 -4 -6 -15 3 -14 -1 -20 -13 -20 -14 0 -15 -2 -2 -10 15 -9 33 7 24 21 -2 4
3 12 11 19 10 9 15 9 15 1 0 -6 -5 -11 -11 -11 -8 0 -7 -6 2 -17 12 -14 12
-16 0 -8 -11 6 -13 4 -8 -8 3 -8 0 -21 -8 -27 -8 -6 -12 -17 -9 -25 3 -7 1
-16 -5 -19 -6 -4 -9 -12 -7 -19 1 -7 1 -9 -1 -4 -3 4 -9 5 -14 2 -5 -4 -6 1
-3 9 3 9 10 16 15 16 5 0 9 5 9 11 0 8 -4 9 -13 0 -8 -6 -17 -7 -21 -3 -4 4
-7 3 -6 -3 5 -21 0 -36 -9 -30 -5 3 -12 1 -16 -4 -3 -6 3 -8 15 -6 25 5 36
-11 20 -30 -6 -8 -9 -19 -5 -25 3 -5 1 -10 -5 -10 -6 0 -8 -4 -5 -10 3 -5 2
-10 -4 -10 -5 0 -11 5 -13 12 -3 8 -9 8 -24 -1 -14 -10 -15 -11 -2 -7 10 3 20
1 23 -4 4 -6 0 -10 -7 -10 -9 0 -9 -3 -2 -8 14 -9 24 -62 12 -62 -5 0 -6 -5
-2 -12 4 -7 3 -8 -4 -4 -6 4 -9 13 -5 21 3 8 0 15 -7 15 -9 0 -9 4 1 18 13 15
12 16 -4 3 -13 -10 -15 -17 -6 -27 9 -11 8 -14 0 -14 -8 0 -7 -6 3 -16 9 -8
14 -20 11 -25 -4 -5 0 -9 7 -9 7 -1 2 -7 -12 -15 -19 -10 -27 -10 -32 -2 -6 9
-8 9 -8 1 0 -6 8 -18 17 -25 11 -10 14 -10 9 -1 -4 6 -3 12 2 12 6 0 13 -7 16
-16 3 -8 2 -12 -4 -9 -9 6 -13 -1 -26 -44 -3 -10 -7 -11 -18 -2 -10 9 -16 9
-21 1 -4 -6 -1 -9 7 -8 7 2 13 -4 13 -12 0 -8 -6 -14 -13 -12 -6 1 -12 -2 -12
-7 0 -6 9 -9 19 -8 11 0 17 5 14 11 -4 5 -1 6 7 1 10 -6 7 -12 -11 -26 -13
-10 -20 -21 -16 -25 4 -4 0 -15 -8 -24 -13 -14 -12 -16 5 -17 17 -2 19 3 15
29 -4 21 -2 29 7 26 7 -3 19 2 26 11 11 14 12 13 2 -6 -5 -12 -15 -25 -20 -28
-7 -4 -6 -13 1 -27 6 -11 7 -18 2 -15 -4 3 -19 -1 -33 -9 -14 -7 -20 -13 -14
-14 14 0 13 -52 -1 -62 -6 -5 -5 -8 3 -8 7 0 11 -4 8 -9 -3 -5 1 -14 9 -21 19
-16 19 -30 1 -30 -20 0 -29 -17 -15 -26 8 -5 9 -3 4 7 -8 12 -6 12 8 0 20 -16
13 -33 -11 -24 -15 6 -15 4 -4 -10 8 -8 20 -13 28 -10 8 3 14 0 14 -7 0 -6 -4
-9 -9 -5 -5 3 -12 1 -16 -4 -3 -5 3 -15 12 -21 17 -11 17 -11 1 -6 -20 6 -25
-10 -5 -17 9 -3 9 -7 -2 -20 -7 -10 -9 -17 -3 -17 5 0 9 -11 8 -24 0 -13 -5
-22 -10 -18 -5 3 -6 -3 -2 -13 6 -16 4 -16 -11 -4 -12 10 -15 10 -9 1 4 -7 2
-20 -5 -28 -10 -12 -10 -15 2 -12 17 4 21 -53 5 -64 -7 -5 -5 -8 4 -8 13 0 13
-1 0 -11 -13 -9 -13 -10 0 -6 8 2 20 -2 27 -9 15 -15 17 -28 3 -19 -5 3 -10
-1 -10 -10 0 -9 -5 -13 -11 -9 -7 4 -7 -1 1 -16 10 -20 10 -22 -3 -17 -16 6
-18 -16 -2 -30 4 -4 5 -3 2 3 -4 7 0 14 8 18 8 3 12 12 9 20 -3 8 -1 17 5 21
7 4 8 0 4 -11 -4 -11 -3 -15 5 -10 7 4 6 -4 -3 -20 -7 -15 -18 -30 -24 -33 -6
-4 -2 -12 9 -19 16 -10 18 -9 15 8 -2 11 1 20 7 20 5 0 8 -6 5 -14 -3 -7 0
-19 6 -26 9 -9 9 -11 1 -7 -7 4 -14 0 -18 -8 -3 -8 0 -14 7 -12 7 1 11 -4 9
-12 -2 -8 3 -11 13 -8 22 9 19 0 -4 -13 -17 -8 -19 -7 -16 8 2 11 -3 18 -14
18 -10 0 -18 -6 -18 -12 0 -7 6 -10 12 -8 8 3 11 -5 10 -23 -2 -39 37 -99 56
-87 9 5 5 -23 -4 -32 -15 -16 -6 -24 15 -14 21 10 21 10 6 -3 -20 -16 -25 -32
-6 -21 7 5 8 3 4 -5 -6 -9 -13 -8 -26 6 -15 16 -16 20 -3 35 10 11 11 18 4 23
-6 3 -11 -1 -11 -9 0 -10 -6 -13 -17 -10 -14 4 -15 3 -5 -4 8 -5 14 -13 14
-18 1 -16 22 -44 33 -44 6 0 16 -9 23 -21 8 -12 9 -18 3 -14 -7 4 -10 -2 -8
-14 4 -23 17 -41 17 -23 0 7 5 12 11 12 8 0 8 -4 -1 -15 -6 -8 -8 -20 -4 -26
5 -8 3 -9 -6 -4 -9 6 -10 2 -5 -15 4 -13 3 -20 -2 -17 -5 4 -10 0 -10 -6 0 -7
9 -14 19 -14 10 -1 18 3 18 8 0 6 -4 7 -10 4 -6 -3 -7 1 -3 10 8 24 25 -4 17
-29 -4 -13 -2 -16 6 -11 9 6 9 3 1 -13 -9 -16 -8 -23 3 -29 16 -10 50 -73 39
-73 -5 0 1 -7 11 -15 11 -8 14 -15 8 -15 -17 0 -15 -27 3 -34 8 -3 14 -10 13
-15 -2 -5 6 -17 17 -26 20 -16 20 -16 -1 -6 -22 11 -34 6 -34 -13 0 -6 5 -4
10 4 10 16 12 13 14 -20 0 -11 4 -20 9 -20 4 0 10 0 13 0 4 0 1 6 -5 13 -8 10
-7 14 3 14 14 0 14 -26 1 -46 -3 -5 -1 -12 5 -16 6 -4 7 -11 4 -17 -4 -5 6 -2
21 8 l28 18 -12 -22 c-6 -12 -16 -22 -21 -22 -6 0 -10 -5 -10 -11 0 -8 4 -8
13 -1 20 17 40 -2 35 -31 -3 -14 -1 -32 4 -39 7 -10 8 -8 4 5 -3 9 -1 17 4 17
13 0 13 -26 -1 -53 -9 -19 -7 -18 10 3 11 14 23 21 27 17 4 -4 2 -7 -4 -7 -16
0 -7 -35 18 -70 24 -33 30 -36 50 -17 12 10 12 9 1 -5 -21 -28 -6 -68 25 -68
14 0 23 -4 19 -10 -4 -6 -10 -8 -15 -5 -5 3 -12 1 -15 -5 -4 -6 -1 -9 7 -8 7
2 12 -3 10 -10 -1 -8 2 -11 8 -7 6 3 7 12 3 18 -5 8 -2 8 9 0 8 -7 17 -11 20
-8 2 3 4 -13 3 -35 -1 -22 3 -38 9 -37 5 1 10 -5 11 -13 0 -8 5 -15 11 -15 11
0 51 -36 46 -42 -2 -2 -2 -9 0 -15 3 -7 7 -5 11 6 5 12 3 15 -6 10 -6 -4 -9
-3 -4 1 4 5 -1 17 -10 28 -10 11 -12 17 -4 12 8 -4 17 -2 23 6 7 10 8 8 3 -8
-3 -12 -1 -24 5 -28 6 -3 8 -11 5 -16 -6 -8 8 -13 27 -10 5 0 7 -2 7 -7 -5
-27 3 -39 26 -39 15 0 22 4 18 11 -3 6 -2 8 2 3 13 -11 16 -45 5 -52 -5 -3 -8
0 -7 7 2 7 2 10 0 6 -9 -16 -22 -7 -16 9 6 15 5 16 -9 3 -14 -14 -14 -16 5
-27 12 -6 25 -9 29 -7 5 3 9 0 9 -5 5 -40 5 -40 42 -26 10 4 17 3 17 -5 0 -6
-4 -8 -10 -5 -5 3 -10 -1 -10 -9 0 -10 6 -13 15 -10 8 4 22 1 29 -5 11 -9 15
-9 20 1 3 7 3 2 0 -11 -4 -17 -2 -22 7 -18 8 2 13 11 11 18 -2 8 0 10 5 6 4
-5 8 -25 8 -45 1 -22 6 -37 15 -40 13 -3 13 -2 0 8 -13 10 -13 11 2 7 9 -3 19
-3 21 1 2 4 2 0 0 -8 -3 -8 -5 -19 -6 -25 -1 -6 17 -9 42 -8 28 1 39 -2 31 -7
-8 -5 -17 -7 -21 -4 -4 2 -10 0 -13 -5 -4 -6 7 -8 26 -6 24 3 29 2 18 -5 -10
-7 -11 -10 -2 -11 6 -1 17 -3 22 -4 6 -1 15 -3 20 -4 6 0 10 -9 9 -18 0 -11
-3 -13 -6 -5 -2 6 -10 9 -15 6 -7 -5 -8 -2 -3 7 5 8 4 10 0 6 -5 -4 -10 -13
-11 -20 -2 -18 49 -15 58 3 5 12 7 12 7 -3 1 -10 -6 -20 -14 -23 -8 -4 -15
-10 -15 -15 0 -5 9 -4 20 3 16 11 22 10 33 -6 9 -12 19 -16 27 -11 9 5 11 4 6
-3 -4 -7 -2 -12 5 -12 6 0 9 -8 6 -20 -3 -11 -1 -18 4 -15 10 7 50 -13 46 -23
-1 -4 1 -8 6 -9 4 -2 7 0 6 4 0 3 7 11 16 16 13 7 20 5 27 -7 7 -13 13 -15 23
-6 11 9 13 8 10 -7 -2 -10 -6 -27 -10 -38 -6 -17 -5 -17 9 3 10 12 21 20 26
17 4 -3 10 -1 12 5 2 6 8 2 15 -9 13 -21 2 -24 -27 -7 -12 7 -12 6 -3 -4 6 -7
10 -18 9 -24 -2 -6 -1 -8 1 -3 5 8 53 10 53 1 0 -3 -5 -15 -11 -27 -10 -22
-10 -22 6 -2 9 11 23 19 32 17 8 -2 13 1 9 6 -3 5 1 9 7 9 15 0 20 -34 6 -42
-5 -4 -9 -2 -9 3 0 6 -8 13 -17 16 -15 6 -15 5 1 -13 10 -11 23 -19 30 -18 6
1 10 -5 8 -13 -2 -8 0 -12 4 -8 4 4 14 2 22 -5 9 -6 13 -7 10 -2 -4 6 1 19 9
30 15 20 15 20 9 0 -5 -16 -1 -21 16 -22 12 -1 26 3 31 10 6 8 7 7 4 -5 -6
-19 18 -45 27 -29 7 11 46 3 46 -11 0 -5 -9 -4 -20 2 -14 7 -20 7 -20 0 0 -5
7 -10 15 -10 8 0 15 -5 15 -12 0 -7 6 -4 13 5 13 18 27 13 46 -18 l12 -20 -5
20 c-7 24 8 53 18 36 4 -6 2 -11 -3 -11 -6 0 -11 -4 -11 -10 0 -5 11 -10 25
-10 15 0 24 -5 22 -13 -1 -7 6 -11 17 -9 17 3 18 1 7 -11 -9 -12 -9 -17 0 -23
7 -4 9 -3 5 4 -3 6 -1 14 4 17 8 5 5 13 -6 26 -13 14 -14 23 -7 30 8 8 11 6
10 -7 -1 -12 5 -19 15 -19 20 0 57 -32 69 -60 7 -15 8 -11 4 15 -5 31 -4 33 7
13 6 -13 20 -23 30 -23 16 0 17 3 8 20 -6 11 -7 20 -3 20 4 0 13 -11 20 -25 6
-14 7 -23 2 -19 -5 3 -6 -2 -3 -11 6 -14 8 -14 19 2 10 13 10 20 2 25 -7 5 -8
8 -1 8 5 0 15 -5 22 -12 9 -9 12 -9 12 2 0 7 2 11 5 8 8 -8 -6 -38 -17 -38 -5
0 -6 6 -2 13 4 6 3 8 -1 4 -5 -4 -10 -14 -11 -22 -2 -11 2 -12 16 -5 10 6 30
10 44 10 15 0 24 5 22 13 -1 6 -1 9 1 4 3 -4 8 -5 13 -2 4 3 13 -2 20 -10 9
-10 9 -15 1 -15 -6 0 -11 5 -11 12 0 6 -7 4 -18 -5 -10 -10 -22 -14 -26 -10
-4 4 -4 -1 0 -11 6 -16 8 -17 16 -2 5 9 14 16 19 16 6 0 8 -4 5 -8 -2 -4 4 -8
14 -8 10 0 16 5 13 10 -4 6 1 6 13 2 10 -5 28 -9 39 -10 11 0 24 -5 28 -11 5
-6 7 0 4 12 -3 13 -2 25 2 27 4 3 8 -5 8 -17 2 -20 13 -31 29 -27 4 1 11 -4
16 -12 8 -10 9 -10 5 2 -2 8 -9 14 -15 13 -5 -1 -13 4 -16 13 -4 12 -2 12 14
4 22 -12 33 -13 26 -2 -2 4 5 9 17 9 16 2 18 0 8 -7 -17 -10 -23 -38 -11 -45
5 -3 7 3 5 14 -2 14 1 18 11 14 7 -3 12 -8 10 -12 -2 -3 9 -6 24 -6 16 -1 26
3 24 7 -3 4 2 8 11 8 9 0 14 -4 11 -8 -11 -18 30 -8 53 12 13 11 21 16 18 9
-4 -6 -4 -13 0 -16 5 -2 1 -2 -7 0 -8 2 -11 1 -7 -3 4 -4 -1 -13 -11 -21 -13
-11 -10 -11 14 1 23 11 34 12 43 3 7 -7 11 -7 11 -1 0 6 7 11 15 11 9 0 14 -6
11 -14 -3 -7 -1 -13 4 -13 6 0 10 7 10 16 0 8 4 13 9 9 5 -3 12 -1 15 4 4 5 1
13 -5 17 -7 4 -10 3 -6 -2 3 -5 -12 -10 -33 -10 -31 -1 -38 2 -37 17 1 11 5
15 12 10 5 -4 27 -7 47 -6 21 1 34 -3 31 -8 -3 -6 7 -8 26 -5 22 3 28 1 21 -6
-5 -5 -10 -15 -10 -21 0 -5 5 -2 11 8 6 10 15 14 22 10 7 -5 24 -8 38 -9 23 0
26 4 24 27 -2 25 0 26 16 16 22 -14 25 -33 7 -40 -7 -2 -1 -4 14 -3 14 0 24 4
22 8 -2 4 0 10 6 13 8 5 8 11 1 19 -8 9 -7 13 4 13 8 0 12 -4 9 -9 -3 -4 0 -8
7 -8 10 0 10 -3 1 -12 -7 -7 -12 -17 -12 -23 0 -5 5 -2 11 8 8 13 14 15 23 8
9 -8 13 -7 13 4 0 8 -5 11 -10 8 -6 -3 -7 -1 -3 5 4 7 2 12 -5 12 -7 0 -9 3
-6 6 4 4 13 1 21 -5 12 -10 19 -8 37 10 17 17 21 18 16 5 -5 -12 -3 -16 5 -13
7 2 12 9 11 14 -1 5 7 9 17 9 10 0 16 -4 14 -8 -3 -4 0 -8 5 -8 6 0 11 5 11
12 0 9 3 9 12 0 19 -19 32 -14 17 6 -13 15 -12 16 3 4 9 -8 15 -19 12 -27 -3
-7 0 -16 7 -21 8 -5 10 -3 4 6 -5 8 -1 18 10 27 16 11 17 13 3 13 -9 0 -20 4
-23 10 -4 6 2 7 17 2 40 -14 63 -9 60 13 -2 18 -2 18 8 3 6 -10 16 -18 22 -18
6 0 5 7 -3 18 -7 9 -9 14 -5 10 5 -4 16 -2 24 5 13 10 14 9 7 -3 -6 -8 -10
-19 -10 -25 0 -5 -9 -10 -20 -10 -11 0 -19 -3 -17 -8 1 -4 2 -9 2 -12 0 -3 10
0 23 7 12 7 27 13 32 14 6 0 16 2 23 2 17 3 15 19 -3 19 -8 0 -12 -4 -9 -9 3
-4 0 -8 -6 -8 -7 0 -10 5 -8 12 6 18 42 19 57 0 13 -16 13 -16 7 2 -5 14 -3
17 10 12 14 -5 15 -4 5 8 -10 12 -9 14 8 9 12 -3 19 -9 16 -13 -3 -5 -1 -12 5
-15 6 -4 9 -3 8 2 -5 17 23 52 37 47 11 -5 14 -1 9 12 -5 18 -5 18 6 0 10 -14
10 -20 -1 -27 -8 -5 -17 -3 -22 4 -6 8 -7 6 -3 -5 3 -10 1 -18 -4 -18 -6 0
-10 -5 -10 -12 0 -6 7 -4 18 5 10 10 21 14 24 11 4 -3 9 4 13 15 7 21 27 30
22 10 -1 -6 4 -13 11 -15 7 -1 8 0 2 3 -7 3 -7 10 2 21 7 9 8 13 3 10 -6 -4
-11 2 -12 12 -2 17 0 17 17 3 10 -9 17 -24 15 -35 -2 -10 0 -16 6 -13 5 4 7
10 4 15 -9 14 14 24 72 32 7 1 10 5 7 10 -3 5 -10 6 -15 3 -5 -4 -9 -2 -9 4 0
5 9 13 20 16 11 4 18 11 15 16 -4 5 -1 9 4 9 15 0 14 -13 -1 -29 -10 -11 -10
-13 0 -7 7 5 12 1 13 -11 0 -17 1 -17 8 0 4 10 11 18 16 17 6 0 11 7 12 17 3
16 2 15 -5 -1 -12 -28 -21 -8 -13 30 0 4 8 1 16 -6 12 -10 16 -8 24 11 6 14
10 17 11 9 0 -12 2 -12 11 2 10 19 43 13 32 -6 -3 -6 0 -5 8 2 12 11 12 14 -1
22 -12 8 -12 10 -1 10 8 0 20 -8 27 -17 12 -17 13 -16 9 4 -2 11 3 29 11 40
14 17 14 16 4 -5 -6 -13 -7 -22 -1 -22 5 0 13 9 16 20 3 11 11 20 16 20 6 0 7
6 3 13 -6 9 -5 9 8 0 15 -13 28 -8 28 9 0 5 -5 6 -12 2 -6 -4 -8 -3 -4 4 3 6
16 8 29 6 12 -3 28 -6 35 -6 7 -1 11 -7 8 -15 -8 -20 2 -16 14 6 7 14 7 22 -2
27 -6 4 -8 3 -4 -4 3 -6 -1 -9 -11 -8 -10 2 -19 11 -20 22 -3 18 -2 17 6 -1 8
-18 9 -18 16 -3 6 16 9 16 22 2 9 -8 18 -12 21 -9 4 3 0 10 -8 15 -11 7 -12
10 -2 10 7 0 11 4 7 9 -3 5 -1 12 4 15 5 4 12 2 16 -3 3 -6 13 -7 22 -4 12 5
14 3 8 -8 -5 -8 -4 -11 1 -6 5 5 9 16 9 25 0 10 7 16 18 15 13 -1 17 4 12 14
-4 13 -3 14 10 3 8 -7 13 -15 11 -19 -3 -4 4 -7 15 -7 19 0 18 1 -3 17 -17 14
-20 20 -10 31 9 11 9 17 0 26 -9 9 -9 12 0 12 10 0 16 -11 14 -30 0 -3 9 -6
21 -7 12 0 16 1 9 4 -6 3 -9 9 -6 14 3 6 12 5 22 -3 16 -12 16 -11 2 7 -8 11
-19 23 -25 27 -5 4 -6 8 -1 8 5 0 18 -8 29 -18 19 -16 20 -16 8 5 -13 26 -15
44 -1 23 12 -19 31 -20 53 -2 9 8 17 11 17 6 1 -19 29 42 30 64 0 22 1 22 16
7 9 -9 19 -13 22 -10 4 3 2 9 -4 13 -12 7 -12 47 -2 58 4 3 5 -5 4 -18 -2 -19
2 -24 20 -24 12 0 20 4 18 8 -3 5 -10 6 -15 3 -5 -4 -9 -2 -9 3 0 6 7 13 16
16 22 9 26 8 18 -6 -4 -6 -3 -8 4 -5 12 8 4 47 -10 47 -5 0 -6 -5 -2 -12 4 -7
3 -8 -5 -4 -16 10 -3 27 17 24 11 -2 17 4 17 19 0 12 4 25 8 30 5 4 7 3 5 -2
-2 -6 1 -11 6 -13 6 -1 11 5 12 14 4 24 10 26 24 9 11 -13 10 -15 -1 -12 -8 2
-11 2 -7 0 4 -3 1 -11 -7 -19 -8 -9 -21 -12 -27 -8 -7 4 -10 4 -6 -1 4 -4 3
-14 -3 -21 -8 -9 -7 -18 1 -31 9 -16 10 -15 4 6 -4 17 -3 21 6 16 9 -5 11 -4
6 3 -7 11 6 17 27 13 5 -1 6 3 3 8 -4 5 1 14 10 19 14 8 14 13 3 33 -11 21
-10 23 3 11 13 -10 15 -9 13 13 -2 14 1 25 7 25 6 0 8 -7 5 -15 -4 -8 -1 -17
6 -21 7 -4 9 -4 5 1 -4 4 0 14 10 22 9 8 12 12 7 9 -6 -2 -11 3 -11 13 0 10 6
18 13 18 7 0 10 -4 7 -8 -2 -4 1 -11 7 -15 8 -4 9 -3 5 4 -10 16 6 15 24 -1 9
-7 8 -4 -1 8 -9 11 -16 28 -16 37 0 14 4 15 21 6 12 -6 18 -7 14 -3 -4 5 -2
15 5 24 10 14 10 14 -5 3 -20 -16 -37 3 -19 21 9 9 10 7 5 -8 -7 -17 -6 -18 8
-7 8 7 22 11 29 9 8 -2 10 -2 6 1 -4 2 -3 10 4 18 6 8 16 11 23 7 7 -4 6 -1
-1 8 -10 13 -10 19 1 34 9 12 15 15 20 7 4 -7 2 -12 -3 -12 -6 0 -11 -4 -11
-8 0 -5 6 -9 14 -9 7 0 13 5 12 11 -3 23 -17 35 -38 31 -11 -3 -18 -1 -14 2
12 12 40 12 53 1 10 -8 12 -7 8 4 -5 13 18 43 34 43 3 0 5 6 5 13 -1 6 2 12 8
12 5 0 6 5 2 11 -10 16 -24 -10 -16 -30 5 -14 4 -14 -13 -1 -17 13 -18 13 -10
0 7 -12 6 -13 -7 -3 -8 7 -18 11 -21 8 -4 -3 -4 -2 -1 2 5 8 9 9 35 12 5 0 8
5 5 10 -12 18 28 22 42 4 12 -16 12 -14 7 15 -3 19 -2 31 3 28 5 -3 9 1 9 8 0
8 -6 12 -14 9 -7 -3 -13 0 -13 6 0 6 3 10 8 8 4 -1 19 9 32 22 14 13 21 22 15
19 -5 -3 -16 1 -23 8 -12 13 -10 14 10 9 19 -5 29 1 48 27 14 18 25 38 25 43
1 6 6 9 13 8 7 -2 12 2 12 8 0 6 -7 9 -15 6 -8 -4 -17 -2 -20 3 -4 6 0 10 8
10 8 0 20 7 27 16 12 13 10 14 -14 3 -19 -9 -29 -10 -38 -1 -8 8 -5 9 10 5 14
-3 24 1 31 15 6 11 8 22 5 25 -8 8 52 47 62 39 5 -4 0 3 -10 16 -24 28 -30 28
-23 1 3 -12 3 -18 0 -15 -4 3 -12 1 -20 -6 -7 -6 -16 -8 -20 -4 -3 3 -1 6 6 6
10 0 35 48 31 59 -1 2 5 8 14 13 9 5 14 13 11 17 -2 5 2 14 10 21 8 7 12 17 9
22 -4 5 9 2 27 -7 19 -9 27 -10 19 -3 -11 9 -15 27 -12 61 2 33 0 47 -9 47 -7
0 -10 3 -7 6 4 3 15 1 27 -5 14 -8 22 -8 27 1 5 7 3 8 -6 3 -8 -5 -11 -3 -8 6
3 8 10 14 16 14 5 0 13 3 16 8 3 4 3 5 0 2 -4 -2 -16 1 -27 7 -19 10 -20 11
-3 23 22 17 22 27 -1 36 -17 7 -16 8 2 8 17 1 18 3 5 12 -13 9 -13 10 0 6 10
-2 15 -16 15 -40 0 -19 3 -33 7 -31 4 3 5 23 3 45 -4 33 -2 39 9 30 9 -8 13
-7 13 3 0 8 -8 13 -19 11 -10 -2 -16 0 -13 5 3 5 0 10 -7 13 -7 2 -3 3 9 1 17
-3 20 0 15 18 -4 16 -2 19 8 13 8 -5 11 -4 6 3 -4 6 -14 9 -24 6 -13 -5 -14
-4 -4 4 8 5 13 12 13 16 -3 19 0 26 10 26 8 0 8 -4 0 -14 -9 -10 -8 -15 2 -19
9 -3 13 2 12 16 -1 12 6 28 15 37 9 8 10 11 3 7 -6 -5 -18 -5 -24 -1 -8 4 -9
3 -5 -4 4 -7 2 -12 -3 -12 -14 0 -14 17 -1 25 6 4 8 11 5 16 -11 16 5 31 20
19 10 -8 15 -8 21 1 4 7 3 9 -3 6 -6 -4 -14 0 -17 9 -9 24 -7 27 10 14 12 -11
15 -11 12 1 -2 8 3 13 10 11 8 -1 11 2 7 8 -5 8 -11 7 -21 -1 -8 -6 -14 -8
-14 -3 0 5 -7 0 -15 -10 -8 -11 -15 -15 -15 -10 0 6 3 14 8 18 10 11 9 30 -3
38 -6 5 -5 8 3 8 7 0 10 5 7 10 -3 6 -3 16 2 23 4 6 8 22 9 35 1 30 19 48 21
22 1 -11 -2 -18 -6 -16 -4 3 -8 -1 -8 -9 0 -10 4 -12 12 -5 7 5 14 8 17 5 2
-3 5 2 5 10 0 8 -3 15 -7 15 -3 0 -6 11 -6 25 0 17 4 24 14 20 7 -3 10 0 7 6
-4 6 -13 8 -20 5 -13 -5 -30 22 -20 32 3 3 5 0 5 -6 0 -7 4 -12 9 -12 4 0 7
11 6 25 -2 14 2 25 8 25 5 0 7 3 4 7 -4 3 -1 13 6 21 10 13 9 14 -10 4 -12 -7
-28 -12 -35 -12 -7 1 -1 8 15 16 30 16 37 30 10 20 -10 -4 -14 -4 -10 0 4 4 1
14 -6 22 -10 13 -9 14 10 4 35 -19 40 -14 8 9 -16 12 -23 19 -14 16 10 -3 22
6 33 26 11 20 12 25 3 14 -9 -11 -18 -14 -21 -8 -4 5 -2 12 4 16 10 6 9 40 -3
51 -3 4 -4 -5 -1 -19 2 -14 -1 -29 -6 -32 -8 -5 -8 -11 -1 -19 8 -9 7 -13 -4
-13 -8 0 -12 4 -9 8 2 4 -2 10 -8 12 -10 4 -10 6 0 6 7 1 10 6 6 13 -5 7 -3 8
6 3 8 -5 11 -3 8 6 -3 8 -12 13 -19 11 -9 -2 -8 3 4 16 9 10 18 31 19 45 2 17
7 26 15 23 7 -3 15 -1 18 5 4 5 3 9 -2 8 -23 -4 -33 3 -33 22 0 16 -4 20 -17
15 -17 -6 -17 -5 0 8 10 7 19 23 22 34 3 17 -1 20 -23 16 -26 -5 -26 -4 6 16
17 11 32 22 32 25 0 3 -11 -2 -25 -11 -21 -14 -26 -14 -30 -2 -3 8 -5 21 -3
29 2 8 -3 13 -10 11 -8 -1 -11 2 -8 7 4 5 19 8 34 5 18 -3 23 -2 13 5 -11 7
-11 10 0 15 8 3 3 3 -10 0 -14 -4 -21 -2 -17 4 3 5 0 12 -8 15 -16 6 -16 72 1
72 6 0 15 4 20 9 5 5 3 6 -4 2 -7 -4 -13 -3 -13 3 0 5 -8 11 -17 13 -15 3 -14
5 5 10 14 4 20 2 15 -4 -3 -7 -1 -8 5 -4 22 13 12 26 -16 22 -21 -2 -28 1 -28
15 0 10 4 15 8 13 4 -3 8 6 8 20 0 14 5 28 10 31 19 11 0 26 -20 15 -16 -8
-18 -6 -16 15 2 14 -6 34 -18 47 -17 19 -18 21 -2 15 10 -4 20 -7 22 -7 3 0 3
-4 -1 -9 -3 -5 -1 -12 4 -16 6 -3 8 -13 5 -23 -5 -14 -3 -14 6 2 10 14 10 20
0 26 -6 4 -11 10 -11 14 3 19 0 26 -13 26 -9 0 -12 8 -8 25 2 14 8 22 13 19 5
-3 9 -1 9 5 0 5 -8 9 -19 8 -10 0 -17 -8 -16 -17 1 -8 0 -9 -2 -2 -3 7 -8 10
-12 8 -4 -3 -8 1 -8 9 0 8 4 12 9 9 4 -3 8 0 8 6 0 6 5 8 12 4 7 -5 8 -3 2 7
-5 8 -9 17 -9 22 0 4 -3 7 -7 7 -5 0 -11 0 -14 0 -4 0 -1 -7 6 -15 7 -9 8 -15
2 -15 -18 0 -21 27 -5 49 12 18 12 25 2 37 -7 8 -18 13 -25 10 -7 -3 -16 -1
-19 4 -7 12 5 41 16 34 5 -3 6 2 3 10 -3 9 -10 16 -16 16 -5 0 -6 5 -2 12 4 7
3 8 -5 4 -9 -6 -9 -11 -1 -21 7 -9 7 -15 -3 -23 -10 -9 -13 -6 -13 16 1 15 5
33 10 41 7 11 5 13 -8 8 -14 -5 -16 -3 -11 12 3 11 1 22 -5 26 -5 3 -10 11
-10 18 0 8 3 8 12 -1 7 -7 16 -12 22 -12 5 0 -4 11 -22 23 -17 13 -28 28 -24
32 4 5 1 5 -5 1 -16 -9 -17 10 -2 19 7 5 3 14 -10 26 -22 21 -43 27 -23 7 15
-15 16 -28 2 -28 -5 0 -10 7 -10 15 0 9 -7 18 -15 21 -10 4 -13 13 -9 26 4 14
2 18 -5 14 -7 -5 -8 -1 -4 10 5 13 3 15 -7 9 -8 -5 -11 -4 -6 3 3 6 -2 12 -11
14 -15 3 -14 5 4 10 12 3 22 3 21 -1 -1 -3 3 -16 10 -29 7 -12 10 -28 6 -34
-5 -7 -3 -8 6 -3 9 6 11 4 5 -5 -5 -9 -4 -11 3 -6 9 5 9 13 2 27 -6 11 -8 24
-5 29 4 6 3 10 -2 9 -19 -3 -25 2 -14 15 9 11 6 13 -16 11 -16 -1 -37 1 -47 5
-19 6 -19 7 2 12 12 4 20 2 16 -3 -3 -5 2 -6 10 -3 19 7 22 25 4 22 -12 -3
-14 2 -17 37 0 8 -5 15 -11 15 -5 0 -7 -8 -3 -17 5 -14 1 -13 -16 4 -24 26
-27 35 -7 27 18 -7 30 12 15 22 -8 4 -9 3 -5 -4 4 -7 5 -12 2 -12 -7 0 -46 38
-46 45 0 7 -14 5 -20 -2 -3 -4 0 -3 7 1 8 4 11 0 8 -13 -2 -14 1 -18 11 -14 8
3 14 1 14 -5 0 -14 -35 -8 -36 6 -1 7 -3 15 -4 20 -1 4 -2 11 -1 16 1 5 -1 16
-5 25 -4 9 -8 18 -8 21 -4 14 -25 43 -26 34 0 -7 -7 -14 -15 -18 -8 -3 -14 -2
-13 2 3 14 -14 42 -26 42 -18 0 -35 35 -25 51 13 21 11 32 -6 25 -9 -3 -19 3
-26 15 -6 11 -16 19 -22 16 -7 -2 -21 -1 -32 4 -17 6 -17 8 -3 8 11 1 15 6 12
15 -4 11 0 13 18 9 13 -3 21 -3 18 0 -3 3 -21 9 -40 12 -43 8 -46 11 -29 32
12 15 12 16 -3 10 -10 -4 -26 -10 -35 -13 -15 -5 -16 -4 -3 5 14 10 13 12 -19
15 -8 0 -15 7 -17 14 -1 7 0 8 3 2 2 -5 9 -10 14 -10 6 0 7 6 3 13 -4 6 2 3
14 -7 12 -11 22 -15 22 -9 0 5 -11 16 -25 23 -14 7 -25 17 -25 22 0 5 4 6 10
3 6 -3 7 1 3 10 -4 12 -8 13 -13 5 -6 -9 -9 -9 -14 1 -3 8 -3 4 -1 -8 3 -12 1
-24 -4 -28 -7 -4 -8 1 -4 12 6 16 5 17 -13 3 -18 -14 -18 -14 -5 3 7 9 10 17
5 17 -5 0 0 7 10 15 11 8 15 15 8 15 -6 0 -18 -10 -26 -22 -18 -26 -21 -17 -5
14 6 11 7 18 1 15 -5 -4 -18 0 -28 8 -18 14 -17 15 10 11 16 -3 26 -2 22 1 -8
8 -34 14 -59 14 -9 0 -15 4 -12 9 3 6 0 7 -8 4 -8 -3 -14 2 -14 11 0 8 5 15
10 15 6 0 8 2 5 5 -10 10 -37 -7 -32 -20 3 -7 1 -16 -5 -20 -7 -4 -8 0 -4 11
5 13 3 15 -8 9 -8 -5 -5 2 6 15 l20 23 -23 -12 c-13 -7 -26 -10 -30 -7 -3 3 1
6 8 6 9 0 7 5 -5 14 -13 9 -25 11 -36 5 -14 -7 -16 -3 -13 21 2 17 -1 30 -7
30 -6 0 -7 5 -3 12 4 7 3 8 -4 4 -6 -4 -9 -13 -5 -21 3 -8 0 -15 -7 -15 -6 0
-8 5 -4 12 5 7 2 9 -8 6 -8 -4 -15 0 -15 7 0 8 5 13 10 12 5 -1 11 4 13 11 1
7 0 8 -3 2 -2 -5 -9 -7 -14 -4 -6 4 -6 11 1 19 9 10 7 13 -6 11 -9 -1 -23 -11
-30 -21 -17 -23 -18 -12 -3 17 7 13 8 23 1 30 -7 7 -10 4 -9 -7 1 -11 -6 -19
-20 -21 -24 -4 -31 10 -11 22 6 4 8 3 5 -3 -3 -5 0 -10 8 -10 11 0 12 4 4 13
-11 13 -39 8 -50 -9 -4 -5 -9 -5 -13 2 -4 6 -2 11 4 11 6 0 8 5 5 10 -4 6 -10
8 -14 6 -4 -3 -13 0 -21 5 -12 7 -10 8 7 6 12 -2 26 -6 29 -10 4 -4 11 -7 16
-7 5 0 3 6 -5 14 -7 8 -28 13 -45 12 -26 -2 -29 0 -21 15 6 12 5 20 -3 25 -7
4 -8 3 -4 -4 4 -7 1 -12 -8 -12 -10 0 -13 -6 -10 -17 5 -15 4 -16 -5 -3 -6 9
-7 18 -1 24 6 6 10 14 10 19 0 6 -11 -2 -24 -16 -19 -21 -25 -23 -30 -11 -3 8
-2 12 3 9 10 -6 24 11 27 32 1 6 -5 9 -13 6 -11 -4 -12 -8 -2 -13 7 -5 -8 -7
-33 -7 -35 2 -44 5 -40 16 3 9 1 12 -6 7 -6 -3 -13 -2 -17 3 -3 6 -12 8 -19 5
-8 -3 -17 -1 -21 5 -4 7 1 8 12 4 10 -3 15 -3 11 2 -4 4 -4 13 2 19 5 7 5 17
-2 26 -8 12 -9 12 -4 -2 3 -10 1 -20 -4 -23 -5 -3 -12 4 -15 16 -6 19 -8 19
-20 3 -7 -10 -20 -19 -30 -20 -9 -1 -14 0 -11 3 3 3 0 15 -6 27 -7 11 -11 25
-10 29 1 5 -3 5 -10 1 -7 -5 -26 -7 -42 -5 -20 2 -26 -1 -21 -10 5 -8 4 -10
-4 -5 -9 6 -9 11 -1 21 9 11 7 14 -9 12 -12 -1 -21 -6 -21 -12 0 -5 -5 -3 -10
5 -8 12 -10 12 -10 1 0 -8 -3 -11 -6 -8 -4 4 1 18 10 32 9 14 12 25 6 25 -5 0
-10 -5 -10 -11 0 -8 -4 -8 -14 0 -10 8 -16 9 -21 1 -3 -6 -11 -8 -16 -5 -5 4
-9 1 -9 -5 0 -6 -5 -8 -11 -4 -8 4 -2 12 15 21 14 7 26 15 26 16 0 7 -69 1
-77 -7 -5 -5 -2 -6 6 -1 10 6 12 4 6 -5 -5 -9 -4 -11 3 -6 8 5 10 1 6 -9 -6
-14 -8 -13 -21 5 -8 11 -19 17 -25 14 -6 -4 -5 -9 3 -15 10 -6 7 -8 -8 -6 -15
1 -19 5 -13 13 6 6 6 15 2 19 -4 5 -2 6 3 2 6 -3 17 -1 25 5 12 8 12 9 -2 4
-11 -3 -18 0 -18 7 -1 7 -6 3 -13 -8 -7 -11 -18 -21 -25 -23 -8 -1 -11 2 -6 9
4 8 -1 9 -17 4 -18 -5 -21 -4 -9 4 8 6 23 8 32 5 12 -4 16 1 15 15 -1 17 -3
18 -21 5 -25 -17 -36 -18 -32 -1 1 6 1 9 -1 5 -7 -12 -33 -9 -33 4 0 6 -3 8
-7 4 -5 -4 0 -14 11 -21 18 -13 18 -14 -2 -12 -11 0 -18 5 -15 11 4 5 -1 7 -9
3 -9 -3 -24 1 -35 9 -13 10 -14 14 -3 12 8 -2 18 -7 21 -12 4 -4 10 -3 13 3 4
6 2 11 -4 11 -6 0 -8 5 -4 13 5 8 2 8 -9 -2 -9 -7 -17 -9 -17 -3 0 14 -66 10
-82 -6 -6 -6 -17 -12 -22 -12 -6 0 -5 4 3 9 19 12 22 38 5 38 -11 0 -11 -3 -1
-15 10 -13 8 -14 -13 -7 -14 4 -28 13 -32 19 -6 8 -8 8 -8 -1 0 -7 8 -17 18
-22 9 -6 12 -11 5 -11 -6 0 -14 4 -18 9 -3 5 -19 8 -35 6 -16 -2 -32 0 -35 6
-4 5 -10 7 -15 4 -14 -9 -60 17 -53 29 4 6 0 6 -8 -1 -11 -9 -19 -9 -26 -2 -8
8 -13 8 -17 0 -4 -6 -23 -11 -41 -11 -28 0 -33 -3 -29 -17 5 -14 4 -15 -4 -4
-6 8 -8 20 -5 28 6 14 -9 18 -21 6 -11 -11 -30 -10 -38 2 -5 6 -8 6 -8 -2 0
-7 8 -16 18 -22 15 -9 15 -10 -5 -8 -12 0 -19 5 -17 9 3 4 -2 8 -11 8 -10 0
-13 -5 -9 -12 4 -7 3 -8 -4 -4 -7 4 -12 2 -12 -5 0 -7 -7 -4 -15 7 -10 14 -14
15 -15 5 0 -12 -3 -12 -12 -3 -17 17 -33 15 -18 -3 9 -10 9 -15 1 -15 -6 0
-11 4 -11 9 0 13 -54 8 -65 -7 -9 -11 -11 -9 -11 6 0 12 6 19 16 17 8 -1 23 2
34 7 14 8 17 7 11 -3 -5 -8 -4 -10 4 -5 6 4 9 12 6 17 -9 13 9 11 23 -3 6 -6
14 -9 18 -6 3 4 -4 12 -16 18 -16 9 -25 8 -36 -1 -13 -10 -17 -10 -25 2 -5 9
-9 10 -9 2 0 -6 -9 -10 -19 -8 -15 3 -19 -1 -16 -16 3 -13 0 -19 -8 -16 -7 2
-11 11 -9 20 1 8 -2 18 -8 22 -6 4 -7 -1 -3 -11z m2 -37 l14 -22 -23 20 c-18
15 -22 16 -18 4 4 -9 1 -16 -8 -16 -7 0 -11 4 -8 8 2 4 -5 7 -16 6 -12 -1 -18
-7 -16 -14 3 -7 2 -15 -3 -17 -11 -7 -10 27 1 41 6 7 14 11 18 8 5 -3 11 -1
15 4 8 14 28 4 44 -22z m274 13 c-3 -12 -8 -19 -11 -16 -5 6 5 36 12 36 2 0 2
-9 -1 -20z m112 11 c3 -6 -3 -15 -14 -21 -14 -7 -22 -7 -26 0 -4 6 -3 10 2 9
20 -3 34 2 28 11 -3 6 -4 10 -1 10 3 0 7 -4 11 -9z m33 -26 c-3 -3 -9 2 -12
12 -6 14 -5 15 5 6 7 -7 10 -15 7 -18z m-522 -3 c1 -7 0 -8 -3 -2 -2 5 -9 10
-14 10 -6 0 -8 -4 -5 -9 3 -5 -1 -14 -8 -20 -11 -9 -14 -9 -12 1 5 35 36 49
42 20z m791 -31 l1 -26 -13 25 c-16 29 -16 29 -41 10 -17 -13 -18 -13 -7 1 7
8 22 15 35 15 18 0 23 -6 25 -25z m-957 9 c0 -5 -2 -10 -4 -10 -3 0 -8 5 -11
10 -3 6 -1 10 4 10 6 0 11 -4 11 -10z m37 -12 c-3 -8 -6 -5 -6 6 -1 11 2 17 5
13 3 -3 4 -12 1 -19z m783 12 c0 -5 -2 -10 -4 -10 -3 0 -8 5 -11 10 -3 6 -1
10 4 10 6 0 11 -4 11 -10z m440 -91 c-13 -23 -22 -25 -13 -2 5 12 3 14 -8 8
-12 -8 -12 -6 0 8 18 22 34 11 21 -14z m-827 -19 c-3 -12 -8 -19 -11 -16 -5 6
5 36 12 36 2 0 2 -9 -1 -20z m82 10 c-6 -9 8 -14 28 -11 5 1 6 -3 2 -8 -4 -7
-15 -6 -31 1 -18 8 -21 14 -12 20 17 10 20 10 13 -2z m126 -18 c8 2 18 8 22
13 5 6 7 3 3 -7 -3 -10 0 -18 6 -18 9 0 9 -3 0 -12 -7 -7 -12 -17 -12 -22 0
-6 5 -4 10 4 12 19 32 20 46 1 8 -10 13 -11 18 -3 4 7 12 12 18 12 6 0 5 -7
-3 -17 -12 -16 -12 -17 2 -6 9 7 18 12 20 10 3 -1 -1 4 -8 12 -10 12 -14 12
-29 0 -16 -12 -17 -12 -11 4 5 12 3 16 -5 11 -7 -4 -8 -3 -4 4 5 8 15 8 32 2
30 -12 34 -12 33 -2 -3 16 2 23 11 17 8 -5 7 -11 -1 -21 -9 -11 -9 -14 0 -14
7 0 9 -5 5 -12 -4 -8 -3 -10 2 -5 5 5 10 13 10 18 3 23 6 23 20 -1 8 -14 13
-18 12 -10 -2 8 2 15 7 15 6 0 9 -3 8 -7 -1 -3 5 -9 13 -12 12 -4 15 -2 11 9
-4 8 -1 17 5 21 6 4 8 3 4 -4 -3 -5 0 -12 6 -15 10 -3 10 -7 -1 -20 -9 -11
-10 -17 -2 -17 6 0 11 5 11 11 0 6 6 9 13 6 6 -2 11 -11 9 -18 -3 -11 -1 -12
9 -1 14 13 41 17 37 5 -2 -5 2 -8 7 -8 6 0 9 4 7 8 -1 5 3 7 10 4 7 -2 12 -11
12 -19 -1 -10 6 -13 22 -10 13 2 24 8 24 13 0 5 -8 6 -17 3 -16 -5 -16 -4 -3
6 13 10 13 11 -2 6 -10 -3 -18 -1 -18 4 0 6 9 10 20 10 11 0 20 -5 20 -10 0
-7 6 -7 19 0 14 7 22 7 27 -2 5 -7 3 -8 -6 -3 -10 6 -12 4 -6 -10 5 -14 4 -16
-7 -7 -10 9 -14 8 -14 -2 0 -16 13 -15 46 3 14 8 21 9 17 2 -4 -6 -2 -11 3
-11 6 0 11 5 11 11 0 5 5 7 11 3 8 -5 6 -10 -5 -16 -9 -5 -16 -14 -16 -21 0
-8 3 -8 9 2 7 11 11 10 19 -5 6 -10 14 -16 18 -12 4 5 14 2 22 -5 13 -9 14 -9
8 1 -4 6 -5 12 -2 12 2 0 13 3 23 6 15 5 15 4 3 -5 -8 -5 -12 -13 -8 -16 3 -3
13 1 22 10 9 9 16 13 16 8 0 -5 -5 -14 -12 -21 -9 -9 -9 -12 0 -12 7 0 15 7
19 15 5 13 8 13 20 -5 8 -11 19 -17 25 -14 6 4 5 9 -3 15 -10 6 -7 8 8 6 15
-1 19 -5 13 -13 -6 -6 -7 -13 -4 -17 8 -8 -18 -3 -33 6 -8 5 -13 4 -13 -2 0
-6 5 -12 10 -12 6 -1 14 -2 19 -3 15 -2 26 -16 13 -16 -7 0 -12 -5 -12 -12 0
-6 8 -4 19 6 17 16 20 16 35 1 9 -9 16 -12 16 -7 0 15 -28 34 -39 27 -7 -3 -8
0 -5 9 5 12 9 13 25 3 10 -6 19 -15 19 -20 0 -4 4 -6 9 -2 5 3 13 0 17 -6 4
-8 9 -7 15 2 6 10 9 10 9 2 0 -7 15 -20 33 -29 42 -22 42 -21 26 -41 -7 -10
-9 -15 -5 -11 5 4 15 0 23 -10 13 -15 13 -15 3 6 -9 18 -8 22 5 22 8 0 15 5
15 12 0 6 3 8 6 5 4 -4 1 -13 -5 -21 -10 -12 -9 -15 8 -13 12 1 21 5 21 9 0 4
5 8 11 8 8 0 8 -4 -1 -15 -6 -8 -17 -13 -22 -12 -6 1 -13 -5 -15 -13 -4 -12
-3 -12 5 -1 8 10 11 11 17 1 6 -10 11 -9 22 5 7 11 13 14 13 8 0 -6 21 -23 46
-37 52 -29 58 -31 48 -14 -5 7 -3 8 5 3 9 -5 10 -10 2 -18 -16 -16 -14 -23 15
-36 16 -7 24 -17 20 -26 -3 -8 0 -17 6 -21 7 -4 8 -3 4 4 -12 20 19 13 34 -7
12 -17 15 -18 25 -5 9 13 14 13 35 -4 14 -10 31 -17 39 -14 8 3 5 -5 -7 -18
-27 -29 -20 -40 24 -40 19 0 34 -5 34 -11 0 -5 -5 -7 -12 -3 -7 5 -8 3 -3 -6
6 -10 11 -9 23 6 15 20 15 19 -5 -33 -4 -12 1 -9 14 6 18 22 51 22 38 0 -4 -5
0 -9 7 -9 9 0 9 -3 -2 -10 -13 -9 -13 -10 0 -10 9 0 22 6 30 13 12 10 12 9 1
-5 -7 -10 -10 -18 -5 -19 24 -2 47 -8 52 -15 4 -4 0 -5 -9 -1 -9 3 -22 0 -29
-6 -10 -9 -11 -9 -5 2 5 9 4 12 -3 7 -7 -4 -12 -2 -12 3 0 17 -27 13 -34 -5
-5 -14 -4 -15 9 -4 12 10 16 9 21 -4 4 -10 13 -14 24 -11 10 3 25 -1 33 -10 9
-8 20 -15 26 -15 7 0 9 -12 6 -32 -5 -27 -4 -30 9 -18 9 7 14 16 11 19 -2 4 3
8 11 8 10 0 11 -4 4 -11 -13 -13 -13 -29 -1 -21 5 3 12 1 16 -5 4 -6 11 -8 16
-5 15 10 10 -2 -8 -16 -14 -12 -16 -12 -8 0 6 10 4 12 -5 6 -8 -5 -11 -4 -6 3
7 12 -32 8 -43 -4 -3 -4 2 -4 11 -1 16 6 32 -7 33 -25 0 -3 4 -10 9 -15 5 -5
6 -3 2 5 -4 7 -1 12 8 12 8 0 17 6 20 13 3 6 4 3 3 -8 -1 -11 3 -19 10 -18 9
2 10 -4 2 -23 -5 -15 -7 -29 -4 -32 3 -3 5 0 5 7 0 7 5 9 10 6 6 -4 7 -11 4
-17 -4 -6 3 -5 16 2 12 6 24 9 28 6 3 -3 0 -6 -7 -6 -7 0 -9 -5 -5 -12 4 -6 3
-8 -2 -5 -6 3 -16 1 -24 -5 -13 -8 -13 -9 1 -5 34 11 71 -35 44 -56 -5 -4 1
-6 15 -5 14 2 29 8 33 13 5 6 7 4 4 -5 -2 -8 -10 -14 -16 -12 -17 3 6 -37 25
-45 7 -3 11 -10 8 -17 -3 -6 2 -2 10 8 18 23 21 14 5 -15 -5 -11 -14 -17 -20
-14 -5 4 -9 1 -9 -4 0 -14 17 -14 25 -1 4 7 13 7 26 0 11 -6 17 -15 14 -21 -4
-5 -2 -9 2 -9 5 0 9 -9 10 -20 1 -13 -3 -18 -10 -14 -7 3 -2 -3 10 -14 12 -11
19 -23 15 -26 -3 -4 1 -4 9 -1 13 5 16 0 14 -19 -2 -15 1 -24 6 -20 5 3 7 9 4
14 -3 5 0 12 6 16 8 4 9 3 5 -4 -4 -7 -1 -12 6 -12 10 0 10 -2 0 -8 -7 -5 -14
-18 -17 -31 -2 -12 0 -19 6 -16 13 8 11 -9 -2 -22 -8 -8 -7 -13 3 -18 7 -5 10
-4 5 0 -4 5 3 20 15 33 18 20 19 24 6 19 -18 -6 -35 8 -20 17 12 7 35 -10 38
-28 1 -9 -1 -14 -6 -11 -11 7 -19 -30 -9 -46 4 -7 11 -10 16 -6 4 5 3 11 -3
15 -6 4 -3 13 8 25 10 9 18 13 18 9 0 -4 -5 -13 -12 -20 -9 -9 -9 -12 1 -12 7
0 10 -4 7 -9 -3 -5 1 -11 9 -15 8 -3 15 -10 15 -16 0 -6 -7 -4 -16 5 -9 9 -19
13 -23 9 -3 -4 0 -9 7 -11 6 -3 12 -9 12 -14 0 -4 -6 -6 -13 -3 -8 3 -20 -3
-27 -13 -12 -15 -12 -16 0 -5 8 6 18 12 23 12 4 0 5 -6 1 -12 -5 -9 -2 -8 9 1
15 12 19 12 31 -5 8 -10 12 -22 9 -26 -2 -5 3 -11 12 -14 10 -4 12 -9 6 -13
-16 -11 -21 -58 -5 -58 10 0 11 4 3 14 -8 9 -8 13 0 13 6 0 11 -3 12 -7 0 -5
2 -19 5 -32 4 -21 2 -22 -13 -10 -10 7 -15 9 -11 5 4 -5 2 -16 -5 -25 -11 -14
-10 -14 6 -2 19 15 24 2 6 -16 -9 -9 -7 -11 6 -9 11 2 19 12 20 24 2 32 9 34
24 9 13 -21 13 -21 -4 -7 -17 14 -18 13 -12 -2 3 -10 -1 -24 -10 -34 -16 -16
-16 -16 2 -11 27 9 45 -4 41 -28 -2 -11 4 -29 13 -39 16 -19 15 -19 -14 0 -21
13 -27 14 -19 4 5 -8 9 -25 8 -37 0 -12 3 -20 7 -17 13 8 11 -10 -2 -23 -9 -9
-7 -10 9 -6 12 3 20 9 17 13 -3 5 -1 11 4 14 5 3 7 -10 5 -29 -2 -21 1 -33 7
-30 5 4 9 3 8 -2 -1 -4 0 -12 1 -18 1 -5 3 -23 4 -39 0 -16 7 -31 14 -33 8 -3
10 2 6 14 -5 15 -4 15 5 3 8 -11 7 -18 -4 -26 -20 -15 -19 -25 3 -18 13 5 14
4 3 -4 -8 -6 -20 -8 -28 -5 -7 3 -13 0 -13 -7 0 -6 4 -9 9 -6 17 11 19 -22 4
-45 -9 -12 -11 -19 -5 -15 6 3 13 2 16 -3 4 -5 2 -12 -4 -16 -21 -13 -9 -27
17 -22 26 5 26 4 8 -9 -10 -8 -15 -14 -11 -14 5 0 -2 -10 -15 -21 -13 -12 -6
-9 16 6 22 16 34 22 28 15 -15 -16 -17 -34 -5 -26 5 3 8 -7 7 -22 -1 -15 2
-32 7 -39 6 -8 4 -11 -8 -9 -12 2 -19 12 -19 29 -1 15 2 24 8 20 6 -3 7 -1 3
5 -5 9 -13 9 -27 2 -22 -12 -26 -22 -6 -14 8 3 14 -2 14 -11 0 -8 -5 -15 -11
-15 -6 0 3 -9 19 -20 21 -14 25 -20 13 -20 -22 0 -12 -30 11 -31 14 -1 14 -2
-1 -6 -10 -2 -18 -8 -19 -11 -6 -45 -4 -70 4 -65 6 4 8 -1 4 -11 -4 -9 -3 -15
2 -12 5 3 15 -2 22 -12 13 -15 12 -16 -3 -3 -11 8 -18 9 -18 3 0 -6 5 -14 10
-17 6 -4 7 -13 1 -23 -4 -9 -6 -23 -4 -29 3 -7 1 -13 -4 -13 -5 0 -9 16 -9 37
1 24 -4 38 -14 40 -9 3 -11 1 -5 -4 15 -12 12 -49 -3 -45 -9 2 -11 -2 -5 -10
4 -7 8 -17 8 -23 0 -5 9 -10 21 -9 11 1 21 -4 21 -10 0 -6 4 -20 7 -31 4 -11
-1 -6 -10 10 -10 17 -19 25 -21 18 -2 -6 3 -23 13 -38 15 -23 15 -25 0 -19 -9
3 -14 10 -11 14 9 14 -16 23 -28 11 -9 -9 -7 -10 8 -5 18 7 19 6 5 -11 -9 -11
-10 -16 -2 -11 7 4 12 1 12 -8 0 -9 8 -16 18 -17 10 0 12 -3 4 -6 -6 -2 -9
-10 -6 -15 4 -7 2 -8 -4 -4 -8 5 -11 0 -8 -16 2 -13 9 -22 16 -20 6 1 9 -2 5
-8 -5 -8 -11 -8 -20 0 -9 7 -16 6 -25 -5 -11 -13 -10 -14 6 -8 17 6 17 5 5
-10 -7 -9 -17 -15 -21 -12 -12 7 -6 -21 8 -37 6 -8 9 -18 5 -21 -3 -4 2 -9 11
-13 9 -3 13 -11 10 -16 -4 -6 -10 -5 -15 3 -7 11 -9 10 -9 -3 0 -10 -6 -18
-12 -19 -10 0 -10 -2 0 -6 10 -4 8 -9 -7 -20 -17 -11 -19 -18 -11 -33 14 -26
12 -34 -4 -21 -11 9 -16 9 -22 0 -4 -7 -3 -9 2 -6 5 3 20 -2 32 -12 21 -16 22
-17 3 -17 -11 0 -18 3 -16 6 2 4 -2 7 -9 7 -7 0 -13 -6 -13 -13 0 -7 5 -10 10
-7 7 4 8 -1 3 -12 -5 -15 -4 -16 9 -5 9 7 18 10 22 6 3 -3 1 -6 -6 -6 -7 0 -9
-5 -5 -12 4 -6 3 -9 -2 -6 -5 3 -18 2 -29 -3 -17 -6 -17 -8 -2 -8 9 -1 17 -6
17 -12 0 -6 -7 -8 -16 -5 -8 3 -12 2 -9 -4 3 -6 0 -10 -7 -10 -9 0 -9 -3 2
-10 8 -5 11 -10 6 -10 -6 0 -5 -5 1 -11 13 -13 6 -39 -9 -39 -6 0 -5 6 2 15 7
9 8 15 2 15 -14 0 -23 -28 -11 -35 5 -4 7 -11 4 -16 -4 -5 0 -9 7 -9 7 -1 2
-7 -12 -15 -19 -10 -27 -10 -32 -2 -4 7 -8 8 -8 4 0 -4 8 -20 17 -35 l17 -27
-22 19 c-12 11 -25 16 -29 13 -3 -4 0 -7 8 -7 12 0 11 -2 -1 -11 -13 -9 -12
-10 2 -5 15 4 16 0 11 -27 -8 -41 -9 -43 -30 -26 -16 13 -17 12 -5 -3 11 -14
10 -18 -7 -27 -11 -7 -18 -19 -16 -29 2 -10 -1 -25 -5 -32 -5 -8 -4 -22 2 -33
7 -14 7 -18 -1 -12 -8 4 -10 -2 -7 -19 3 -14 2 -25 -2 -25 -20 3 -25 -3 -12
-12 12 -8 10 -9 -7 -4 -13 3 -31 1 -40 -5 -16 -10 -16 -10 2 -6 11 3 27 1 35
-5 13 -9 12 -10 -3 -5 -22 7 -36 -22 -16 -34 7 -5 11 -11 8 -14 -3 -3 -15 3
-26 13 -20 19 -21 19 -18 -8 1 -15 5 -33 9 -39 5 -8 2 -10 -9 -6 -10 4 -15 2
-13 -7 2 -8 -4 -14 -13 -13 -18 1 -21 -24 -5 -46 5 -8 7 -12 2 -8 -5 4 -15 0
-23 -8 -9 -8 -22 -13 -29 -10 -8 3 -11 0 -8 -8 3 -8 13 -13 22 -11 9 1 11 0 4
-2 -7 -3 -10 -8 -7 -13 3 -5 0 -12 -7 -16 -7 -4 -10 -4 -6 1 9 10 -10 35 -26
35 -6 0 -5 -4 3 -9 9 -6 11 -15 6 -27 -5 -11 -7 -23 -6 -27 1 -5 -3 -6 -9 -2
-8 5 -7 11 1 21 6 8 9 17 5 21 -3 3 -6 1 -6 -5 0 -6 -8 -9 -17 -6 -15 5 -16 4
-3 -5 8 -6 11 -11 7 -11 -4 0 -2 -10 4 -22 12 -22 11 -22 -6 -8 -17 14 -18 14
-6 -9 11 -19 11 -22 -1 -15 -18 12 -39 14 -33 4 3 -5 -1 -12 -8 -17 -8 -4 -19
-18 -26 -31 -7 -12 -17 -20 -23 -16 -5 4 -2 -5 7 -20 19 -28 15 -34 -8 -12
-11 12 -15 11 -26 -6 -7 -11 -8 -17 -3 -14 6 3 12 -1 15 -8 7 -17 -18 -40 -33
-31 -9 5 -15 -15 -11 -38 1 -5 -3 -6 -9 -2 -6 3 -8 10 -5 15 7 11 -22 7 -32
-5 -4 -4 -3 -5 3 -2 7 4 14 0 17 -7 4 -10 0 -13 -14 -11 -11 2 -17 0 -14 -6 4
-5 1 -9 -4 -9 -6 0 -11 6 -11 14 0 8 -4 18 -10 21 -7 4 -7 -2 -1 -18 6 -14 7
-28 3 -32 -4 -4 3 -3 15 4 26 13 33 14 33 3 0 -5 -6 -9 -12 -9 -7 0 -17 -2
-23 -3 -21 -5 -36 1 -29 12 4 7 3 8 -4 4 -9 -5 -9 -12 0 -25 19 -32 -13 -71
-59 -71 -34 0 -35 -1 -17 -14 10 -8 16 -18 11 -22 -4 -4 -7 -2 -7 4 0 7 -7 12
-15 12 -8 0 -15 -5 -15 -11 0 -5 4 -7 10 -4 6 3 7 -1 4 -10 -6 -14 -8 -14 -21
2 -10 13 -16 15 -19 5 -3 -6 -11 -9 -16 -6 -7 4 -8 2 -4 -5 6 -8 12 -9 20 -2
9 8 13 7 13 -4 0 -8 -3 -13 -6 -10 -3 3 -11 -5 -19 -17 -7 -13 -11 -15 -8 -6
3 9 -3 22 -12 30 -16 12 -16 11 -2 -6 14 -18 13 -19 -5 -12 -11 4 -16 4 -13 0
11 -11 -40 -46 -54 -38 -7 5 -5 -5 6 -20 10 -16 12 -25 5 -21 -9 6 -10 3 -5
-10 5 -15 4 -16 -9 -5 -11 9 -13 15 -5 20 8 5 7 9 -4 13 -8 3 -18 2 -21 -4 -4
-5 -11 -7 -16 -4 -5 4 -9 1 -9 -5 0 -7 6 -10 14 -7 17 7 29 -30 14 -40 -7 -3
-8 -1 -4 5 6 11 0 14 -20 11 -4 0 -10 5 -14 11 -5 8 -9 7 -13 -5 -4 -9 -3 -14
2 -11 10 6 25 -24 16 -32 -3 -3 -5 0 -5 6 0 7 -15 11 -35 10 -19 -1 -35 -5
-35 -10 0 -5 5 -6 10 -3 6 3 10 -1 10 -9 0 -8 -5 -18 -12 -22 -6 -4 -8 -3 -5
2 3 6 -3 15 -13 22 -17 10 -18 9 -13 -6 6 -14 4 -15 -9 -4 -11 9 -18 10 -23 2
-4 -6 -1 -9 5 -8 18 4 20 -25 4 -47 -8 -10 -14 -14 -14 -9 0 6 4 14 10 20 6 6
2 14 -13 23 -12 8 -19 10 -15 6 4 -4 1 -13 -5 -20 -9 -10 -15 -10 -26 -1 -11
8 -13 8 -8 -1 4 -6 -4 -20 -18 -31 -14 -11 -25 -23 -25 -28 0 -4 14 5 30 21
18 17 30 23 30 15 0 -9 5 -7 15 6 8 10 15 14 15 8 0 -15 -25 -36 -33 -27 -10
9 -48 -28 -41 -39 3 -5 -3 -4 -14 3 -12 7 -18 18 -15 24 3 5 0 4 -7 -2 -11
-10 -17 -10 -29 0 -9 8 -12 8 -8 1 7 -12 -16 -38 -25 -29 -2 3 -5 -2 -5 -10 0
-13 3 -13 19 2 11 9 18 11 18 5 0 -7 -5 -12 -11 -12 -5 0 -8 -4 -5 -9 3 -4 -5
-8 -17 -7 -12 1 -30 -9 -41 -22 -17 -22 -19 -22 -37 -6 -17 16 -19 16 -19 1 0
-10 5 -17 10 -17 6 0 10 -5 10 -11 0 -8 -4 -8 -12 -2 -18 14 -50 12 -44 -2 3
-8 -6 -12 -22 -11 -18 1 -26 -4 -24 -12 1 -8 -2 -11 -8 -7 -5 3 -10 0 -11 -7
0 -10 -2 -10 -6 -1 -3 9 -10 10 -24 3 -10 -6 -19 -8 -19 -5 0 3 -1 8 -2 12 -2
5 4 8 12 9 8 1 18 2 23 4 4 1 13 3 20 4 6 0 13 11 13 23 1 12 -2 20 -7 17 -4
-2 -6 -10 -3 -18 3 -7 -1 -13 -8 -14 -22 -2 -43 -7 -55 -15 -17 -11 -35 1 -26
16 4 7 0 6 -10 -2 -9 -7 -17 -19 -17 -25 0 -6 5 -4 10 4 9 14 14 7 11 -13 -1
-5 3 -6 8 -3 5 3 15 -2 22 -12 12 -15 12 -15 -1 -5 -17 13 -18 13 -57 13 -22
0 -25 2 -13 10 9 6 10 10 3 10 -27 0 -22 -21 9 -36 33 -15 12 -14 -27 2 -18 7
-19 6 -5 -12 8 -10 10 -16 6 -12 -5 4 -16 2 -25 -5 -14 -10 -14 -10 -4 3 10
13 7 18 -17 32 -27 16 -28 15 -26 -6 2 -13 6 -28 10 -34 4 -7 2 -12 -3 -12 -6
0 -11 7 -11 16 0 13 -3 14 -15 4 -12 -10 -16 -9 -21 4 -3 9 -10 13 -16 10 -5
-4 -5 -10 1 -18 7 -8 4 -12 -10 -13 -10 -1 -19 3 -19 8 0 6 4 8 8 5 4 -2 8 4
8 15 0 18 -2 19 -12 4 -7 -9 -14 -12 -16 -8 -3 4 -3 2 -2 -4 4 -15 -12 -17
-21 -3 -7 12 -25 4 -25 -12 0 -5 7 -7 16 -4 10 4 13 2 8 -6 -5 -8 -2 -9 10 -5
9 4 15 3 11 -2 -7 -13 -45 -9 -45 4 0 5 -5 3 -11 -5 -8 -11 -9 -9 -3 10 6 23
6 24 -11 10 -10 -8 -21 -14 -24 -13 -14 6 -41 -9 -35 -20 3 -7 -3 -2 -14 10
-17 19 -21 20 -26 7 -3 -8 -2 -12 4 -9 6 4 7 -1 3 -11 -4 -11 -8 -13 -11 -6
-2 7 -8 12 -13 12 -6 0 -7 -5 -3 -12 4 -7 3 -8 -4 -4 -7 4 -12 13 -12 21 0 8
-4 16 -9 20 -6 3 -8 -3 -6 -15 2 -11 -1 -23 -7 -26 -6 -4 -8 -3 -4 4 10 16
-18 20 -30 4 -14 -19 -35 -7 -28 16 4 9 -3 4 -14 -11 -15 -23 -21 -25 -25 -13
-4 9 -1 15 5 13 6 -1 13 5 15 13 4 12 3 12 -5 2 -14 -20 -19 -19 -37 3 -16 20
-16 20 -6 0 6 -14 5 -26 -5 -40 -8 -10 -14 -14 -14 -9 0 6 5 15 11 21 7 7 6
12 -5 16 -12 5 -16 0 -17 -16 0 -21 -1 -21 -8 -2 -7 16 -18 20 -53 19 -24 0
-49 -3 -55 -7 -14 -9 -36 26 -25 38 4 5 1 5 -6 1 -8 -5 -9 -13 -2 -26 13 -24
13 -30 0 -30 -5 0 -10 7 -10 16 0 8 -5 12 -11 9 -6 -4 -8 -13 -5 -21 8 -22 -2
-17 -15 7 -8 15 -8 19 0 15 6 -4 11 -3 11 2 0 5 -12 9 -27 9 -21 0 -23 -1 -10
-9 10 -5 17 -14 17 -20 0 -6 -6 -5 -16 3 -13 10 -17 10 -26 -2 -8 -11 -8 -10
-3 6 3 11 3 16 -1 13 -4 -4 -16 -2 -28 4 l-21 11 20 -24 c11 -13 13 -18 5 -11
-21 18 -34 15 -19 -5 12 -16 12 -17 -2 -6 -9 7 -14 25 -13 43 2 25 -1 29 -11
20 -8 -6 -11 -18 -8 -27 5 -13 3 -13 -15 -4 -12 6 -23 7 -26 2 -5 -8 -34 -8
-43 -1 -2 2 -7 3 -12 4 -5 0 -12 4 -16 8 -4 4 -13 4 -21 1 -8 -3 -14 0 -14 5
0 6 9 9 20 7 11 -2 18 0 15 6 -4 5 -1 9 6 9 7 0 9 3 6 6 -4 4 -12 3 -19 -3
-18 -13 -44 -10 -41 5 3 14 -41 -3 -71 -27 -19 -16 -19 -15 -1 11 9 15 21 25
26 22 5 -3 9 -1 9 4 0 5 -15 10 -32 10 -18 1 -42 2 -53 3 -11 1 -36 0 -56 -3
-25 -3 -36 -1 -36 8 0 7 4 11 8 8 4 -2 11 1 15 8 4 7 4 10 -1 6 -4 -4 -15 -2
-23 5 -13 10 -14 9 -7 -2 6 -11 4 -13 -10 -7 -15 5 -16 4 -5 -9 11 -13 10 -14
-4 -9 -18 7 -22 34 -5 34 5 0 7 5 3 12 -6 9 -9 9 -12 0 -3 -9 -8 -10 -16 -3
-9 8 -13 7 -13 -4 0 -8 5 -11 11 -8 6 4 5 0 -1 -9 -7 -8 -12 -17 -10 -19 1 -2
0 -3 -2 -1 -6 3 -12 32 -13 57 0 11 -2 14 -5 7 -3 -6 -9 -10 -13 -7 -5 3 -12
0 -16 -6 -4 -7 -3 -9 4 -5 6 3 14 1 18 -5 5 -8 3 -9 -6 -4 -10 6 -12 4 -7 -8
9 -25 2 -21 -18 9 -9 15 -12 23 -6 20 6 -4 11 -2 11 3 0 6 -3 11 -7 12 -68 8
-72 7 -67 -9 5 -14 4 -14 -6 1 -6 9 -16 14 -22 11 -7 -4 -8 -2 -4 5 4 6 12 9
17 6 5 -3 6 1 2 10 -3 9 -9 13 -12 8 -10 -14 -45 -39 -38 -27 9 16 -19 38 -35
28 -7 -4 -5 1 4 12 12 14 14 23 7 34 -9 12 -10 12 -5 -2 3 -10 2 -18 -2 -19
-4 0 -17 -2 -29 -5 -13 -2 -23 1 -23 7 0 5 5 7 10 4 5 -3 10 -1 10 4 0 6 -7
11 -15 11 -8 0 -15 -6 -15 -12 0 -7 -7 -3 -15 9 -10 14 -23 20 -37 18 -16 -4
-19 -2 -10 7 18 18 14 27 -8 21 -11 -3 -20 -10 -20 -17 0 -6 -5 -3 -11 7 -6 9
-15 15 -20 11 -5 -3 -9 -2 -8 3 1 4 1 15 0 23 -1 13 -2 13 -12 0 -8 -12 -9
-10 -4 7 5 18 3 22 -8 17 -8 -3 -18 0 -23 7 -4 8 -3 10 4 5 8 -5 10 -2 6 9 -4
10 -13 13 -25 10 -11 -4 -19 -2 -19 4 0 6 -4 11 -10 11 -5 0 -7 -8 -4 -17 5
-15 4 -15 -4 -3 -7 9 -7 19 -2 25 7 8 5 12 -5 12 -8 0 -15 -6 -15 -14 0 -7 -4
-13 -10 -13 -5 0 -6 7 -3 17 5 12 3 14 -7 8 -9 -5 -11 -4 -6 4 4 6 11 9 15 7
4 -3 13 0 21 6 13 8 12 9 -2 5 -9 -3 -24 3 -34 14 -16 18 -19 18 -43 2 -24
-15 -25 -15 -12 0 11 14 10 18 -13 28 -25 12 -34 33 -18 42 4 2 1 2 -7 0 -7
-2 -20 2 -28 9 -10 8 -17 8 -21 1 -5 -7 -11 -7 -19 2 -10 10 -9 14 3 19 9 4
12 2 8 -5 -4 -8 0 -7 15 0 25 14 28 23 4 14 -9 -4 -14 -2 -10 3 3 6 -4 11 -16
11 -17 2 -19 0 -7 -7 17 -11 9 -13 -14 -4 -13 5 -14 9 -5 20 8 9 8 14 1 14 -6
0 -14 -4 -17 -10 -3 -5 -11 -10 -16 -10 -6 0 -3 7 6 16 9 9 13 19 10 22 -3 4
-10 0 -14 -7 -7 -10 -10 -9 -16 8 -3 11 -13 21 -21 21 -8 0 -14 4 -14 10 0 5
6 8 12 6 7 -1 9 -1 4 2 -4 2 -2 9 5 14 11 8 11 9 -1 5 -8 -2 -21 3 -28 12 -11
14 -11 14 -6 -1 5 -14 1 -16 -17 -13 -13 3 -27 -1 -32 -8 -6 -9 -7 -8 -4 3 2
8 12 14 21 14 21 -2 21 12 0 20 -9 4 -24 1 -33 -6 -13 -10 -14 -10 -4 1 8 10
7 17 -5 32 -8 10 -19 16 -23 13 -9 -5 -6 23 4 32 4 4 7 11 7 16 0 5 -7 2 -16
-6 -18 -18 -34 -21 -34 -5 0 5 4 8 9 5 13 -8 21 18 10 35 -7 12 -10 12 -21 0
-8 -9 -9 -11 -1 -7 6 3 14 3 17 -2 2 -4 -4 -9 -16 -9 -13 -1 -18 3 -14 12 3 8
0 17 -6 21 -7 5 -5 12 7 21 11 7 14 13 8 13 -7 0 -20 -8 -29 -18 -17 -16 -18
-16 -11 1 4 10 7 23 7 28 0 6 5 7 11 4 6 -4 5 2 -2 13 -15 24 -18 23 -24 -8
-3 -13 -10 -28 -16 -34 -9 -8 -9 -6 -1 8 7 15 6 26 -5 43 -14 22 -14 23 3 18
11 -4 -2 5 -28 19 -55 30 -64 42 -48 61 6 8 9 18 6 24 -3 5 -1 12 4 14 6 3 5
4 -2 3 -7 -2 -12 -8 -11 -14 1 -5 -4 -16 -12 -22 -11 -9 -15 -9 -15 -1 0 6 4
11 8 11 5 0 8 14 8 30 0 29 -7 35 -46 31 -11 -1 -10 1 3 9 9 6 15 15 12 21 -4
5 -2 9 3 9 5 0 9 6 9 14 0 8 -6 12 -15 8 -10 -3 -13 -1 -8 6 4 7 -4 9 -26 7
-24 -3 -29 -2 -18 5 8 5 11 10 5 10 -5 0 -1 7 9 15 23 18 14 20 -16 4 -13 -7
-18 -7 -14 -1 4 6 -2 15 -11 21 -11 6 -13 11 -5 11 7 0 10 5 6 12 -4 6 -3 8 2
5 6 -3 16 -2 23 2 9 6 10 11 2 15 -6 4 -11 2 -11 -4 0 -6 -5 -8 -11 -4 -6 3
-15 0 -21 -7 -7 -11 -8 -9 -6 6 2 11 -2 19 -7 18 -6 -1 -12 8 -12 20 -2 17 0
19 7 7 8 -12 10 -10 10 8 0 19 -4 22 -22 17 -18 -5 -20 -4 -8 4 8 6 11 11 5
11 -5 0 -1 8 10 17 l20 16 -20 -8 c-11 -4 -27 -9 -35 -13 -8 -3 -4 4 10 16 14
12 20 21 14 22 -5 0 -15 -5 -21 -11 -8 -8 -13 -7 -18 2 -5 7 -4 10 2 6 6 -4
17 1 24 10 17 20 18 17 -6 43 -16 18 -17 23 -5 30 11 7 12 10 2 10 -9 0 -11 7
-7 19 3 11 1 22 -4 26 -7 4 -8 -1 -4 -12 6 -15 4 -16 -9 -5 -8 7 -24 9 -33 5
-13 -4 -16 -3 -11 5 4 7 13 12 21 12 8 0 17 4 20 10 3 6 -1 7 -9 4 -9 -3 -16
-1 -16 5 0 6 -8 8 -17 5 -14 -5 -15 -4 -4 4 9 7 10 11 2 17 -9 5 -9 10 0 21
12 15 20 83 10 82 -21 -2 -22 4 -5 17 18 15 18 15 0 8 -13 -4 -17 -3 -12 5 5
8 2 10 -9 5 -13 -5 -14 -7 -3 -14 10 -7 10 -9 1 -9 -7 0 -13 -4 -13 -10 0 -5
6 -9 13 -7 6 1 11 -6 11 -15 -1 -10 2 -16 6 -13 10 6 7 -22 -4 -32 -4 -4 -6
-1 -4 7 2 10 -4 14 -17 12 -19 -2 -19 -2 -2 11 20 17 22 28 5 24 -7 -1 -13 5
-13 13 0 8 -7 18 -15 22 -12 5 -11 7 4 7 15 1 16 4 6 16 -7 8 -17 12 -23 8 -6
-3 -7 -1 -3 6 4 6 13 8 19 4 20 -12 47 -14 47 -2 0 5 -3 8 -8 5 -4 -2 -18 2
-32 10 l-25 15 27 -5 c15 -4 30 -2 33 4 3 6 -1 7 -9 4 -21 -8 -20 5 1 29 13
15 14 18 3 12 -23 -14 -34 -13 -53 7 -9 10 -13 18 -8 18 13 0 21 39 9 47 -7 3
-8 1 -4 -5 4 -7 2 -12 -4 -12 -7 0 -10 6 -7 13 2 6 11 11 21 9 9 -2 16 2 16 8
0 6 -4 9 -9 6 -13 -8 -10 48 3 57 6 5 1 5 -12 2 -23 -7 -23 -6 -8 18 16 24 16
24 -9 22 -14 -2 -23 1 -19 6 3 5 10 7 15 4 5 -4 9 1 9 9 0 9 -6 15 -12 13 -8
-1 -13 12 -13 41 0 33 -3 41 -15 37 -8 -3 -4 4 10 16 17 14 19 19 7 15 -22 -7
-22 1 1 13 15 8 18 5 20 -15 1 -14 -2 -23 -7 -19 -10 6 -8 -42 3 -52 3 -3 0
-13 -6 -22 -9 -12 -7 -11 7 1 15 14 16 20 7 30 -17 17 -15 33 2 19 10 -8 16
-9 21 -1 4 6 1 9 -6 8 -8 -2 -12 12 -13 44 0 26 -5 44 -10 41 -5 -4 -7 1 -3
11 4 10 3 15 -4 11 -5 -4 -7 -16 -3 -28 8 -26 1 -21 -16 12 -10 19 -10 22 1
16 9 -6 11 -3 6 9 -6 14 -3 16 16 12 12 -3 16 -3 8 0 -11 5 -11 8 0 15 7 4 10
11 6 16 -5 4 -12 1 -18 -7 -8 -13 -10 -13 -19 0 -5 8 -10 20 -10 25 0 6 4 4 9
-4 7 -10 12 -11 27 -1 12 7 13 10 3 7 -10 -3 -19 5 -27 27 -11 30 -11 31 6 9
15 -20 19 -20 36 -7 11 7 15 14 10 14 -6 0 -15 -5 -22 -12 -9 -9 -12 -9 -12 3
0 9 3 19 7 23 12 11 12 37 0 29 -6 -4 -8 0 -4 10 3 9 1 19 -5 23 -6 4 -8 3 -5
-3 3 -5 0 -10 -8 -10 -11 0 -12 4 -4 13 6 7 18 10 27 8 16 -5 16 -5 1 8 -14
12 -15 15 -1 27 13 12 12 15 -6 25 -17 9 -18 13 -6 24 20 18 7 37 -14 20 -9
-7 -7 -1 5 15 12 16 21 34 19 40 -1 7 -1 9 1 5 3 -5 9 -8 14 -8 6 0 7 6 1 16
-7 12 -4 22 8 34 10 10 16 29 15 44 -2 14 0 26 5 26 4 0 10 9 13 19 3 14 1 18
-9 14 -8 -3 -12 -9 -9 -13 3 -5 1 -11 -5 -15 -6 -4 -8 -11 -5 -16 4 -5 -1 -12
-9 -15 -9 -3 -13 -10 -10 -15 3 -5 10 -7 15 -4 5 4 9 4 9 1 0 -3 -8 -10 -18
-15 -15 -8 -18 -6 -17 10 1 11 6 24 11 27 5 4 10 21 10 37 0 20 4 29 13 27 8
-2 11 3 8 12 -4 9 -1 18 5 22 6 4 8 3 4 -4 -3 -6 -1 -14 6 -18 7 -4 10 -4 6 1
-4 4 -2 15 5 23 9 13 9 14 0 8 -12 -6 -15 0 -12 20 0 4 -5 11 -13 16 -10 8
-10 9 2 5 8 -2 14 -10 12 -16 -1 -6 3 -11 8 -11 6 0 8 11 4 25 -4 16 -2 25 6
25 6 0 9 4 5 10 -3 5 -12 7 -20 3 -8 -3 -15 0 -15 6 0 6 6 10 12 9 7 -2 12 5
12 14 -1 14 2 15 17 8 12 -7 20 -6 25 2 4 7 3 8 -4 4 -7 -4 -12 -1 -12 9 0 9
-4 14 -9 10 -5 -3 -12 -2 -15 3 -5 8 8 12 47 13 9 0 15 5 11 10 -3 5 -12 8
-19 7 -14 -3 -15 -1 -15 29 0 15 2 14 14 -3 14 -18 15 -18 12 -1 -1 10 -7 22
-13 25 -7 5 -5 12 5 22 14 13 15 12 10 -2 -4 -10 -1 -19 8 -22 9 -3 13 -10 10
-14 -3 -5 1 -9 9 -9 10 0 12 4 5 12 -5 7 -6 16 -2 20 4 5 1 5 -6 1 -11 -6 -18
18 -13 47 0 4 -5 7 -11 7 -7 0 -5 5 5 11 9 6 14 15 11 21 -4 6 -2 8 4 4 6 -3
13 -2 17 4 4 6 11 8 16 5 5 -3 6 1 3 10 -5 12 -10 13 -17 6 -6 -6 -16 -11 -21
-11 -6 0 0 7 12 16 17 12 20 19 12 29 -8 9 -5 12 12 11 13 -1 29 2 35 7 14 10
7 30 -8 21 -5 -3 -6 -10 -3 -16 4 -7 2 -8 -5 -4 -8 5 -9 12 -2 19 5 7 9 16 9
22 0 5 6 11 14 13 9 2 8 0 -2 -7 -11 -8 -11 -11 -2 -11 7 0 15 7 18 15 4 8 10
13 15 10 4 -3 6 4 4 15 -3 14 1 20 13 20 14 0 15 2 2 10 -17 10 -21 8 -24 -16
-2 -10 -8 -19 -15 -20 -7 -2 -7 0 -1 3 7 3 7 10 -2 21 -11 13 -11 14 1 7 11
-6 13 -4 8 9 -4 9 -3 15 2 12 11 -7 23 22 14 36 -3 7 -1 8 6 4 6 -4 14 0 17 8
3 9 11 16 17 16 5 0 2 -8 -7 -19 -15 -16 -15 -19 -2 -24 11 -4 13 -1 9 10 -5
12 -3 14 7 8 9 -5 11 -4 6 3 -4 7 -2 12 5 12 7 0 4 6 -6 14 -11 8 -24 12 -29
9 -5 -4 -6 -1 -2 6 4 6 13 8 19 4 17 -11 38 -13 32 -3 -3 5 1 11 7 14 7 3 3 3
-9 0 -14 -3 -23 -1 -23 6 0 6 5 8 10 5 6 -3 10 0 10 9 0 8 -3 16 -7 19 -5 2
-2 2 5 1 6 -2 12 1 12 6 0 6 7 10 15 10 8 0 15 5 15 11 0 5 -4 8 -9 4 -5 -3
-12 -1 -16 4 -3 6 4 8 16 6 16 -3 19 0 15 12 -5 13 -4 14 9 3 8 -7 12 -17 8
-23 -3 -6 -1 -7 6 -3 12 8 3 27 -24 49 -6 5 -2 6 8 3 12 -4 20 1 26 17 5 12 7
25 4 30 -8 14 5 7 18 -10 10 -11 10 -14 2 -9 -7 4 -13 2 -13 -3 0 -6 4 -11 8
-11 16 0 21 13 12 30 -6 12 -5 17 5 17 8 0 12 -4 9 -8 -2 -4 1 -11 7 -15 8 -4
9 -3 5 4 -4 7 -1 12 6 13 10 0 10 2 1 6 -15 5 -18 33 -4 33 6 0 8 9 6 20 -5
25 9 34 25 15 14 -17 30 -20 30 -4 0 5 -4 8 -9 5 -11 -7 -20 14 -13 31 2 7 8
10 13 7 5 -3 9 3 9 13 0 15 2 16 10 3 5 -8 13 -11 17 -6 4 4 -1 15 -12 23 -14
11 -15 14 -3 10 22 -8 30 3 15 22 -11 14 -10 14 5 2 10 -7 16 -17 13 -20 -2
-4 2 -8 10 -8 10 0 11 5 5 17 -7 13 -4 22 10 35 11 10 20 14 20 9 0 -5 4 -2
10 6 7 11 11 9 19 -13 6 -15 13 -27 16 -27 3 0 -1 15 -9 33 -7 17 -19 31 -25
29 -7 -1 -10 2 -6 8 5 8 11 8 20 0 9 -8 15 -8 20 0 3 6 10 8 15 5 5 -3 15 1
23 9 8 8 17 13 20 10 3 -3 3 4 0 17 -4 14 -2 20 4 16 15 -9 22 26 10 49 -9 17
-8 17 10 -1 14 -14 16 -22 9 -27 -8 -5 -8 -8 0 -8 16 0 24 11 17 24 -4 6 -8
17 -9 24 -2 11 0 11 14 0 14 -11 15 -10 9 5 -5 12 -3 16 5 11 8 -5 9 -2 5 9
-10 26 1 20 16 -9 9 -17 17 -23 21 -15 4 6 3 11 -3 11 -5 0 -8 7 -7 15 2 16
56 65 71 65 6 0 2 -7 -8 -14 -16 -13 -16 -14 0 -27 14 -11 15 -11 9 -1 -9 15
45 72 67 72 7 0 6 -4 -3 -10 -9 -6 -10 -10 -3 -10 6 0 15 5 18 10 10 16 27 0
20 -19 -5 -13 -4 -14 7 -3 10 10 8 17 -11 35 -13 12 -20 16 -16 8 6 -10 4 -12
-4 -6 -9 5 -9 11 -3 17 6 6 16 7 24 2 28 -18 43 -12 19 7 -13 10 -19 19 -14
19 6 0 15 10 22 23 10 19 10 19 6 1 -3 -11 2 -29 10 -40 12 -16 14 -16 9 -1
-6 16 5 22 29 18 5 -1 6 3 3 8 -3 5 1 14 8 20 11 10 17 8 26 -6 11 -17 11 -17
6 1 -4 13 -2 17 7 13 10 -4 13 1 9 18 -4 25 12 42 24 24 4 -7 3 -9 -3 -6 -5 3
-10 0 -10 -8 0 -11 3 -12 14 -3 8 6 12 17 9 24 -3 8 0 13 7 11 7 -1 11 3 10 9
-1 6 4 11 12 11 8 0 12 -4 9 -9 -3 -4 0 -8 5 -8 11 0 15 13 11 40 -1 10 3 9
14 -5 8 -11 16 -25 16 -32 0 -6 4 -15 10 -18 7 -4 7 2 0 19 -5 15 -6 28 0 31
5 3 6 13 3 23 -4 10 2 7 14 -8 20 -24 22 -24 40 -7 11 9 23 14 26 10 4 -3 7 0
7 7 0 7 3 10 7 7 3 -4 12 -2 20 5 7 6 16 8 20 5 3 -3 18 0 33 8 22 11 30 12
34 2 2 -6 3 6 1 28 -3 22 -2 33 2 25 13 -31 53 -34 53 -3 0 8 -5 11 -12 7 -6
-4 -8 -3 -5 4 9 13 30 10 52 -8 14 -11 16 -11 13 1 -2 8 -7 17 -13 21 -6 5 -6
8 2 8 7 0 16 -7 21 -16 12 -21 32 -9 33 19 l0 22 9 -22 c9 -21 14 -24 38 -22
4 0 10 9 14 19 6 15 3 18 -18 14 -13 -2 -24 0 -24 4 0 5 12 8 27 7 17 0 27 -7
29 -19 1 -10 8 -24 15 -30 9 -8 9 -6 0 12 -9 17 -9 22 0 22 9 0 9 3 0 14 -9
11 -9 16 0 22 8 5 9 3 5 -5 -5 -8 -1 -14 12 -18 11 -3 19 -10 18 -16 -2 -7 -1
-8 2 -4 2 4 11 2 20 -5 10 -8 13 -9 9 -1 -4 6 -3 14 3 18 6 4 8 11 4 16 -3 5
-10 7 -15 4 -5 -4 -9 -1 -9 4 0 15 16 14 32 -2 7 -8 25 -13 38 -12 14 1 31 -3
39 -9 8 -6 6 1 -5 19 -12 19 -14 26 -5 20 11 -6 13 -4 8 8 -3 9 -1 19 6 23 7
4 9 4 5 -1 -4 -4 -3 -17 3 -28 9 -15 8 -18 -3 -11 -11 6 -11 5 1 -9 7 -9 19
-17 25 -17 6 0 4 5 -4 10 -14 9 -13 11 9 14 5 0 13 4 17 8 3 4 -3 5 -15 3 -12
-2 -19 0 -16 6 4 5 11 7 16 4 8 -6 13 9 10 28 -1 5 3 6 8 2 6 -3 8 -12 4 -20
-4 -11 -1 -13 13 -8 17 6 17 5 5 -10 -8 -10 -11 -20 -7 -24 3 -3 6 -1 6 6 0 8
6 11 16 7 11 -4 15 -2 11 7 -3 8 -1 20 4 28 6 10 9 10 9 2 0 -7 5 -13 11 -13
5 0 8 4 5 9 -7 10 20 9 30 -2 4 -4 13 -2 20 4 8 7 14 7 19 -1 3 -5 11 -10 17
-10 7 0 7 4 -1 13 -8 10 -7 14 3 14 9 0 13 -8 10 -23 -2 -13 0 -25 6 -29 6 -4
7 1 3 11 -4 12 -3 15 5 10 8 -5 10 -2 6 9 -10 26 19 13 38 -17 10 -16 21 -28
24 -28 4 0 1 6 -5 14 -12 15 -5 46 11 46 6 0 6 -6 -1 -14 -10 -12 -8 -13 8 -9
12 3 18 9 16 14 -3 4 9 2 27 -5 18 -7 46 -11 62 -10 17 2 35 -4 45 -14 9 -10
13 -13 9 -8 -14 18 -8 27 11 16 12 -6 22 -6 26 -1 7 12 -4 18 -32 16 -12 -1
-25 5 -28 14 -6 14 -8 14 -21 -3 -11 -16 -14 -17 -14 -4 0 23 21 28 46 11 12
-8 28 -12 35 -11z m67 -2 c-7 -10 -14 -17 -17 -15 -4 4 18 35 25 35 2 0 -1 -9
-8 -20z m-1098 2 c0 -5 -7 -17 -15 -28 -14 -18 -14 -17 -4 9 12 27 19 34 19
19z m1794 -10 c3 -5 -1 -9 -9 -9 -8 0 -12 4 -9 9 3 4 7 8 9 8 2 0 6 -4 9 -8z
m-1324 -12 c0 5 5 10 12 10 6 0 8 -3 5 -7 -4 -3 -1 -13 6 -22 10 -14 10 -14
-5 -3 -9 7 -18 9 -20 4 -1 -5 -12 0 -23 11 -20 20 -20 20 3 8 14 -8 22 -8 22
-1z m870 4 c0 -8 -19 -13 -24 -6 -3 5 1 9 9 9 8 0 15 -2 15 -3z m-918 -38 c7
4 8 2 4 -5 -9 -14 -36 3 -36 23 0 6 5 3 11 -7 6 -9 15 -14 21 -11z m915 15 c8
7 13 8 13 1 0 -18 -28 -21 -41 -4 -11 14 -11 15 1 5 10 -9 17 -10 27 -2z m53
-6 c0 -2 -6 -5 -13 -8 -8 -3 -14 1 -14 8 0 7 6 11 14 8 7 -3 13 -6 13 -8z
m471 -8 c-10 -9 -11 -8 -5 6 3 10 9 15 12 12 3 -3 0 -11 -7 -18z m-1601 -42
c0 -5 -5 -3 -10 5 -5 8 -10 20 -10 25 0 6 5 3 10 -5 5 -8 10 -19 10 -25z m60
10 c0 -9 -6 -12 -16 -8 -13 5 -13 7 -2 14 17 11 18 11 18 -6z m1273 -15 c3 6
4 5 3 -2 -2 -7 -9 -13 -17 -14 -21 -1 -30 6 -23 17 4 6 11 6 19 -1 9 -8 15 -8
18 0z m-1527 -19 c-7 -10 18 -34 27 -25 3 3 3 13 1 22 -4 12 -2 11 7 -2 12
-19 4 -31 -17 -26 -4 1 -11 -4 -16 -12 -8 -10 -9 -9 -4 4 3 10 1 20 -5 23 -9
6 -4 25 7 25 3 0 3 -4 0 -9z m-36 -32 c0 -5 6 -7 13 -3 8 5 8 3 -2 -9 -7 -9
-17 -15 -21 -12 -4 3 -20 -5 -34 -16 -15 -12 -29 -19 -32 -16 -3 2 11 15 31
27 19 12 33 26 29 31 -3 5 0 9 5 9 6 0 11 -5 11 -11z m-368 -11 c-9 -9 -9 -15
0 -27 7 -9 8 -13 4 -9 -5 4 -16 2 -24 -5 -11 -8 -14 -8 -9 0 4 6 3 14 -2 17
-5 4 -12 -3 -16 -14 -3 -11 -11 -20 -17 -20 -6 0 -4 10 5 23 8 12 19 22 25 22
6 0 17 6 24 13 6 6 14 12 17 12 3 0 0 -5 -7 -12z m2209 -35 c13 -16 12 -17 -3
-4 -10 7 -18 15 -18 17 0 8 8 3 21 -13z m356 -38 c0 -8 -4 -15 -9 -15 -10 0
-11 14 -1 23 9 10 10 9 10 -8z m-2633 -7 c-3 -4 -9 -8 -15 -8 -5 0 -9 4 -9 8
0 5 7 9 15 9 8 0 12 -4 9 -9z m2417 -35 c13 -16 12 -17 -3 -4 -17 13 -22 21
-14 21 2 0 10 -8 17 -17z m-2471 -3 c0 -5 -2 -10 -4 -10 -3 0 -8 5 -11 10 -3
6 -1 10 4 10 6 0 11 -4 11 -10z m235 -9 c3 -5 2 -12 -3 -15 -5 -3 -9 1 -9 9 0
17 3 19 12 6z m-25 -10 c0 -5 -15 -20 -32 -32 -29 -20 -31 -21 -15 -3 9 12 14
24 10 28 -4 4 1 4 11 0 14 -5 17 -4 12 4 -4 7 -2 12 3 12 6 0 11 -4 11 -9z
m2316 -3 c3 -4 -1 -5 -10 -4 -8 1 -18 5 -22 8 -3 4 1 5 10 4 8 -1 18 -5 22 -8z
m46 -45 c-10 -4 -9 -9 4 -24 22 -24 41 -25 23 -1 -11 14 -10 14 8 -2 13 -10
20 -23 16 -29 -4 -6 0 -8 10 -4 11 4 14 2 10 -9 -4 -11 -14 -7 -47 18 -22 17
-43 33 -45 34 -7 5 11 24 22 23 8 0 8 -2 -1 -6z m-2789 -55 c-6 -7 -9 -21 -8
-31 2 -9 -1 -15 -5 -12 -5 3 -14 -3 -20 -12 -9 -14 -10 -15 -7 -2 3 9 0 22 -6
29 -8 9 -8 11 -1 7 6 -4 19 2 29 13 20 22 34 28 18 8z m3081 4 c3 -5 -1 -9 -9
-9 -8 0 -12 4 -9 9 3 4 7 8 9 8 2 0 6 -4 9 -8z m32 -12 c0 -12 -4 -16 -9 -11
-5 5 -6 14 -3 20 10 15 12 14 12 -9z m-2846 -5 c0 -7 -30 -13 -34 -7 -3 4 4 9
15 9 10 1 19 0 19 -2z m-329 -82 c-12 -20 -14 -14 -5 12 4 9 9 14 11 11 3 -2
0 -13 -6 -23z m3004 18 c-3 -5 3 -12 12 -14 11 -3 6 -5 -11 -6 -24 -1 -27 1
-16 14 14 16 25 21 15 6z m-2877 -86 c-3 -3 -9 2 -12 12 -6 14 -5 15 5 6 7 -7
10 -15 7 -18z m-21 -25 c-2 -11 -6 -23 -10 -27 -12 -11 -47 -14 -47 -4 0 6 9
8 20 6 18 -4 26 9 21 38 0 4 3 7 9 7 5 0 9 -9 7 -20z m3294 -63 c-10 -9 -11
-8 -5 6 3 10 9 15 12 12 3 -3 0 -11 -7 -18z m37 -24 c-6 -7 -12 -13 -13 -13
-2 0 -5 6 -8 13 -3 7 3 13 14 13 13 0 15 -3 7 -13z m-3629 -36 c-2 -1 -13 -9
-24 -17 -19 -14 -19 -14 -6 3 7 9 18 17 24 17 6 0 8 -1 6 -3z m3737 -75 c-3
-3 -1 -11 6 -19 6 -7 8 -16 4 -20 -3 -3 -6 0 -6 8 0 12 -2 11 -11 -1 -9 -13
-10 -12 -5 2 3 10 1 20 -4 23 -6 4 -10 1 -10 -6 0 -7 -3 -9 -6 -6 -10 9 16 38
28 31 5 -3 7 -9 4 -12z m-212 -8 c3 -8 2 -12 -4 -9 -6 3 -10 10 -10 16 0 14 7
11 14 -7z m76 -84 c0 -5 -5 -10 -11 -10 -5 0 -7 5 -4 10 3 6 8 10 11 10 2 0 4
-4 4 -10z m-3610 -36 c0 -8 -19 -13 -24 -6 -3 5 1 9 9 9 8 0 15 -2 15 -3z
m3647 -30 c-9 -9 -28 6 -21 18 4 6 10 6 17 -1 6 -6 8 -13 4 -17z m170 20 c-3
-3 -12 -4 -19 -1 -8 3 -5 6 6 6 11 1 17 -2 13 -5z m40 -29 c0 -7 -6 -12 -13
-12 -7 0 -15 5 -17 12 -3 6 3 11 12 11 10 0 18 -5 18 -11z m-4052 -17 c5 4 5
2 2 -5 -6 -9 -18 -10 -45 -4 -2 1 0 6 3 11 5 8 11 8 19 1 7 -6 17 -7 21 -3z
m3889 -6 c3 -5 -1 -9 -9 -9 -8 0 -12 4 -9 9 3 4 7 8 9 8 2 0 6 -4 9 -8z m46
-97 c14 -18 13 -19 -1 -8 -9 7 -19 10 -23 6 -4 -4 -4 1 0 10 3 10 7 17 8 15 1
-2 8 -12 16 -23z m220 -60 c-7 -8 -17 -15 -23 -15 -6 0 -2 7 9 15 25 19 30 19
14 0z m14 -41 c9 -3 13 -10 10 -15 -3 -6 0 -17 7 -25 10 -12 9 -13 -5 -8 -9 3
-16 15 -16 26 0 10 -4 16 -10 13 -5 -3 -10 -1 -10 4 0 13 3 13 24 5z m-4338
-114 c-7 -3 -12 -13 -10 -23 2 -15 0 -16 -12 -6 -11 9 -11 15 -3 25 6 7 8 18
4 24 -4 7 1 6 14 -2 15 -9 17 -14 7 -18z m4430 -108 c-11 -9 -16 -12 -12 -5 3
6 1 15 -5 19 -8 4 -7 9 2 15 23 14 35 -9 15 -29z m-4503 -127 c-3 -9 -8 -14
-10 -11 -3 3 -2 9 2 15 9 16 15 13 8 -4z m4522 5 c3 -5 1 -10 -4 -10 -6 0 -11
5 -11 10 0 6 2 10 4 10 3 0 8 -4 11 -10z m-4555 -75 c0 -8 -2 -15 -4 -15 -2 0
-6 7 -10 15 -3 8 -1 15 4 15 6 0 10 -7 10 -15z m4577 -5 c1 -11 -2 -22 -6 -24
-6 -4 -7 26 -2 42 3 8 7 -1 8 -18z m-127 -6 c0 -2 -9 -4 -20 -4 -11 0 -20 4
-20 9 0 5 9 7 20 4 11 -3 20 -7 20 -9z m175 -24 c-3 -5 -16 -15 -28 -21 -19
-9 -19 -8 3 10 28 23 34 26 25 11z m-4507 -55 c-3 -3 -9 2 -12 12 -6 14 -5 15
5 6 7 -7 10 -15 7 -18z m-158 -141 c0 -2 -7 -4 -15 -4 -8 0 -15 4 -15 10 0 5
7 7 15 4 8 -4 15 -8 15 -10z m4545 -34 c3 -6 -1 -7 -9 -4 -18 7 -21 14 -7 14
6 0 13 -4 16 -10z m-15 -20 c0 -5 -2 -10 -4 -10 -3 0 -8 5 -11 10 -3 6 -1 10
4 10 6 0 11 -4 11 -10z m0 -30 c0 -5 -5 -10 -11 -10 -5 0 -7 5 -4 10 3 6 8 10
11 10 2 0 4 -4 4 -10z m-4566 -55 c7 -19 -3 -45 -17 -45 -7 0 -7 4 1 12 14 14
16 32 4 24 -5 -3 -9 1 -9 9 0 19 13 19 21 0z m4756 -9 c0 -2 -7 -6 -15 -10 -8
-3 -15 -1 -15 4 0 6 7 10 15 10 8 0 15 -2 15 -4z m-4605 -26 c3 -5 1 -10 -4
-10 -6 0 -11 5 -11 10 0 6 2 10 4 10 3 0 8 -4 11 -10z m-145 -25 c0 -2 -6 -8
-13 -14 -10 -8 -14 -7 -14 2 0 8 6 14 14 14 7 0 13 -1 13 -2z m4736 -14 c-4
-5 -1 -12 4 -14 6 -3 5 -4 -2 -3 -15 3 -23 26 -8 26 6 0 9 -4 6 -9z m-126 -41
c0 -5 -5 -10 -11 -10 -5 0 -7 5 -4 10 3 6 8 10 11 10 2 0 4 -4 4 -10z m140 6
c0 -3 -4 -8 -10 -11 -5 -3 -10 -1 -10 4 0 6 5 11 10 11 6 0 10 -2 10 -4z
m-4600 -21 c7 -8 10 -15 6 -15 -3 0 -8 0 -11 0 -3 0 -5 3 -4 6 0 4 -5 11 -13
15 -8 5 -9 9 -2 9 6 0 17 -7 24 -15z m4580 -9 c0 -2 -8 -10 -17 -17 -16 -13
-17 -12 -4 4 13 16 21 21 21 13z m-133 -32 c-3 -3 -12 -4 -19 -1 -8 3 -5 6 6
6 11 1 17 -2 13 -5z m7 -22 c2 -4 -5 -9 -17 -9 -17 -2 -19 0 -7 7 18 12 18 12
24 2z m-4612 -174 c-8 -8 -7 -17 5 -34 22 -35 11 -29 -16 7 -13 18 -19 29 -12
25 6 -4 14 0 17 9 4 9 9 13 12 10 3 -3 1 -10 -6 -17z m-2 -73 c0 -8 -4 -15 -8
-15 -5 0 -9 7 -9 15 0 8 4 15 9 15 4 0 8 -7 8 -15z m4759 -8 c-2 -2 -11 -8
-20 -15 -12 -9 -16 -9 -16 1 0 7 9 14 20 14 11 1 18 1 16 0z m-4589 -62 c0 -7
-30 -13 -34 -7 -3 4 4 9 15 9 10 1 19 0 19 -2z m3 -50 c8 -19 -5 -26 -23 -14
-11 6 -12 9 -2 9 7 0 10 5 7 10 -3 6 -2 10 3 10 6 0 12 -7 15 -15z m4427 11
c0 -3 -4 -8 -10 -11 -5 -3 -10 -1 -10 4 0 6 5 11 10 11 6 0 10 -2 10 -4z m-25
-34 c-8 -8 -25 10 -19 20 4 6 9 5 15 -3 4 -7 6 -15 4 -17z m-18 -109 c-9 -2
-15 -9 -11 -14 3 -5 10 -6 16 -3 7 4 8 2 4 -5 -6 -9 -11 -9 -22 0 -17 14 -9
29 14 28 15 -1 15 -2 -1 -6z m-4512 -13 c4 -6 2 -17 -4 -24 -9 -11 -8 -18 4
-30 9 -9 12 -16 7 -16 -5 0 -16 10 -24 23 -12 19 -14 32 -9 52 2 9 20 5 26 -5z
m160 0 c-3 -5 -12 -10 -18 -10 -7 0 -6 4 3 10 19 12 23 12 15 0z m4318 -163
c3 -8 0 -14 -7 -14 -7 0 -13 6 -13 14 0 7 4 13 8 13 4 0 9 -6 12 -13z m137
-87 c0 -5 -4 -10 -10 -10 -5 0 -10 5 -10 10 0 6 5 10 10 10 6 0 10 -4 10 -10z
m-4366 -72 c-3 -5 0 -16 7 -24 18 -22 19 -41 3 -41 -10 0 -11 4 -3 13 7 9 5
15 -7 22 -9 5 -16 21 -16 35 0 19 -5 24 -17 20 -14 -4 -14 -3 -1 6 11 8 18 7
27 -6 7 -9 10 -20 7 -25z m4186 32 c0 -5 -2 -10 -4 -10 -3 0 -8 5 -11 10 -3 6
-1 10 4 10 6 0 11 -4 11 -10z m146 -54 c0 -14 -5 -21 -9 -17 -4 4 -5 15 -1 24
9 24 12 21 10 -7z m-4348 -31 c-3 -3 -9 2 -12 12 -6 14 -5 15 5 6 7 -7 10 -15
7 -18z m4175 -20 c-3 -9 -8 -14 -10 -11 -3 3 -2 9 2 15 9 16 15 13 8 -4z m120
-10 c-7 -21 -12 -19 -10 4 0 11 5 18 9 15 4 -3 5 -11 1 -19z m-151 3 c-17 -17
-15 -28 6 -21 16 5 16 5 0 -8 -10 -8 -25 -23 -33 -34 l-16 -20 9 20 c4 11 8
27 7 35 0 8 6 20 15 27 19 16 27 16 12 1z m-4182 -142 c0 -3 -4 -8 -10 -11 -5
-3 -10 -1 -10 4 0 6 5 11 10 11 6 0 10 -2 10 -4z m4273 -21 c-3 -9 -8 -14 -10
-11 -3 3 -2 9 2 15 9 16 15 13 8 -4z m-4057 -93 c-9 -9 -37 8 -31 18 5 8 11 7
21 -1 8 -6 12 -14 10 -17z m4050 13 c-1 -6 -11 -23 -23 -38 -19 -25 -21 -25
-26 -8 -3 15 -1 18 11 14 11 -5 13 -3 7 7 -6 9 -4 11 5 5 10 -6 12 -3 8 12 -3
12 0 20 7 20 7 0 12 -5 11 -12z m-4246 -5 c0 -5 -5 -10 -11 -10 -5 0 -7 5 -4
10 3 6 8 10 11 10 2 0 4 -4 4 -10z m4036 -70 c0 -12 -4 -16 -9 -11 -5 5 -6 14
-3 20 10 15 12 14 12 -9z m-3815 -5 c0 -5 -5 -11 -13 -13 -10 -3 -10 -1 1 6
11 8 10 11 -5 15 -16 5 -16 6 -1 4 10 -1 18 -6 18 -12z m3896 -80 c0 -8 -4
-12 -9 -9 -5 3 -6 10 -3 15 9 13 12 11 12 -6z m27 -11 c3 -8 2 -12 -4 -9 -6 3
-10 10 -10 16 0 14 7 11 14 -7z m-4040 -21 c2 -11 10 -17 22 -16 11 1 13 0 7
-3 -7 -3 -13 -10 -13 -15 0 -6 5 -7 12 -3 7 5 8 3 3 -6 -6 -10 -12 -7 -26 11
-9 13 -15 27 -13 31 3 4 0 8 -6 8 -6 0 -8 5 -5 11 9 13 16 7 19 -18z m3843
-15 c-3 -8 -6 -5 -6 6 -1 11 2 17 5 13 3 -3 4 -12 1 -19z m-54 -43 c4 -8 1
-17 -5 -21 -7 -4 -8 -3 -4 4 4 7 3 12 -2 12 -17 0 -22 -13 -9 -29 11 -14 10
-15 -7 -1 -18 14 -19 13 -13 -2 4 -11 2 -17 -6 -15 -7 1 -11 -4 -9 -11 1 -8
-2 -11 -8 -7 -11 7 -6 17 34 63 23 26 22 26 29 7z m192 -5 c-3 -5 -12 -10 -18
-10 -7 0 -6 4 3 10 19 12 23 12 15 0z m-3916 -21 c-7 -4 -10 -11 -6 -15 3 -4
13 -1 22 6 8 7 15 8 15 2 0 -14 -31 -25 -42 -14 -11 11 1 44 14 36 6 -4 5 -10
-3 -15z m3849 -76 c-8 -10 -14 -11 -16 -4 -2 6 -9 8 -14 5 -7 -4 -8 -2 -4 4 4
6 14 8 23 5 12 -5 14 -3 8 7 -5 9 -4 11 4 6 9 -6 9 -11 -1 -23z m-3764 -29
c-3 -29 -1 -34 11 -24 9 8 15 8 20 0 4 -6 3 -9 -2 -8 -4 2 -9 -1 -10 -7 -1 -5
6 -8 15 -7 9 2 14 1 11 -2 -9 -10 -49 -16 -47 -8 1 4 -3 17 -10 28 -6 12 -8
25 -4 29 4 3 8 11 8 16 2 15 4 19 8 19 2 0 2 -16 0 -36z m3520 -40 c3 -8 2
-12 -4 -9 -6 3 -10 10 -10 16 0 14 7 11 14 -7z m166 -4 c0 -5 -5 -10 -11 -10
-5 0 -7 5 -4 10 3 6 8 10 11 10 2 0 4 -4 4 -10z m-3397 -55 c-3 -9 -8 -14 -10
-11 -3 3 -2 9 2 15 9 16 15 13 8 -4z m-79 -103 c2 -4 -5 -9 -17 -9 -17 -2 -19
0 -7 7 18 12 18 12 24 2z m5 -25 c-2 -2 -11 -8 -20 -15 -12 -9 -16 -9 -16 1 0
7 9 14 20 14 11 1 18 1 16 0z m244 -37 c3 -11 1 -18 -4 -14 -5 3 -9 12 -9 20
0 8 -4 13 -8 10 -5 -3 -9 1 -9 9 0 20 23 0 30 -25z m2774 -15 c0 -8 -4 -12 -8
-9 -4 2 -15 -3 -23 -12 -9 -8 -16 -11 -16 -5 0 5 10 17 22 25 27 19 25 19 25
1z m-2749 -19 c-7 -8 -15 -12 -17 -11 -5 6 10 25 20 25 5 0 4 -6 -3 -14z m72
-11 c11 -13 10 -14 -3 -9 -12 4 -15 1 -12 -15 2 -12 0 -19 -5 -16 -4 3 -7 13
-5 23 2 9 4 20 4 25 1 11 7 9 21 -8z m2873 -29 c-9 -15 -45 -40 -61 -43 -8 -1
-12 1 -9 4 3 2 8 4 11 4 7 -1 46 37 46 45 0 3 -5 2 -12 -2 -7 -4 -8 -3 -4 4 4
6 13 9 21 6 8 -4 12 -11 8 -18z m-43 -2 c0 -8 -19 -13 -24 -6 -3 5 1 9 9 9 8
0 15 -2 15 -3z m-3020 -42 c0 -5 -7 -9 -15 -9 -8 0 -12 4 -9 9 3 4 9 8 15 8 5
0 9 -4 9 -8z m286 -11 c0 -11 -5 -17 -13 -14 -17 6 -17 20 0 26 6 3 12 6 12 6
1 1 1 -7 1 -18z m2431 3 c-3 -3 -12 -4 -19 -1 -8 3 -5 6 6 6 11 1 17 -2 13 -5z
m-67 -34 c0 -5 -5 -10 -11 -10 -5 0 -7 5 -4 10 3 6 8 10 11 10 2 0 4 -4 4 -10z
m205 -40 c-3 -5 -12 -10 -18 -10 -7 0 -6 4 3 10 19 12 23 12 15 0z m-363 -58
c9 -9 9 -12 0 -12 -7 0 -12 5 -12 11 0 5 -4 8 -9 4 -5 -3 -12 -1 -15 4 -8 13
22 7 36 -7z m-2262 -2 c10 -6 11 -10 3 -10 -7 0 -13 -5 -13 -11 0 -6 7 -9 15
-6 8 4 17 2 20 -4 4 -5 12 -6 18 -2 7 4 7 0 -1 -10 -13 -15 -16 -15 -38 0 -14
9 -23 22 -20 29 3 7 0 15 -7 18 -7 2 -7 5 -2 5 6 0 17 -4 25 -9z m446 -70 c0
-18 -19 -21 -33 -5 -5 4 -2 5 6 0 10 -6 13 -4 9 7 -4 8 -1 15 6 15 6 0 12 -8
12 -17z m277 -74 c22 0 22 -3 -4 -17 -15 -8 -19 -8 -15 0 9 14 -6 15 -20 1 -6
-6 -10 -3 -11 11 -2 16 2 19 15 13 9 -4 25 -7 35 -8z m1087 -11 c0 -12 -19
-12 -23 0 -4 9 -1 12 9 8 7 -3 14 -7 14 -8z m-1525 -35 c-10 -16 -35 8 -28 25
4 12 7 12 20 0 8 -8 11 -20 8 -25z m369 31 c-8 -8 -43 -8 -38 0 2 4 13 7 24 6
10 -1 17 -3 14 -6z m154 -19 c2 -7 -1 -12 -8 -12 -6 0 -8 5 -4 12 5 8 2 9 -10
5 -11 -4 -15 -3 -11 4 8 12 27 7 33 -9z m-471 -7 c0 -8 -4 -12 -9 -9 -5 3 -6
10 -3 15 9 13 12 11 12 -6z m1853 5 c0 -5 -5 -10 -11 -10 -5 0 -7 5 -4 10 3 6
8 10 11 10 2 0 4 -4 4 -10z m-1809 -37 c-8 -15 -10 -15 -11 -2 0 17 10 32 18
25 2 -3 -1 -13 -7 -23z m1215 1 c2 -12 -1 -13 -12 -3 -7 6 -11 16 -8 21 7 11
17 3 20 -18z m574 0 c0 -10 -6 -14 -14 -11 -7 3 -19 0 -25 -6 -6 -6 -11 -8
-11 -5 0 10 30 38 41 38 5 0 9 -7 9 -16z m-972 -19 c-3 -3 -9 2 -12 12 -6 14
-5 15 5 6 7 -7 10 -15 7 -18z m25 -6 c-9 -9 -12 -7 -10 9 1 14 5 18 11 12 7
-7 6 -14 -1 -21z m42 3 c-3 -3 -11 0 -18 7 -9 10 -8 11 6 5 10 -3 15 -9 12
-12z m-324 -105 c-6 -8 -8 -16 -5 -20 3 -3 -4 -3 -16 0 l-21 6 23 12 c31 17
32 17 19 2z m504 -48 c-7 -11 -48 -5 -52 8 -3 8 3 11 16 8 12 -2 21 1 21 8 0
7 4 7 9 -3 6 -8 8 -17 6 -21z m-336 5 c-6 -7 -17 -10 -25 -7 -22 8 -16 19 11
19 18 0 22 -3 14 -12z m63 1 c0 -5 -5 -11 -11 -13 -6 -2 -11 4 -11 13 0 9 5
15 11 13 6 -2 11 -8 11 -13z m348 11 c0 -3 -4 -8 -10 -11 -5 -3 -10 -1 -10 4
0 6 5 11 10 11 6 0 10 -2 10 -4z"/>
<path d="M2278 4700 c-10 -9 -18 -21 -18 -26 0 -5 4 -4 8 2 4 6 15 15 26 21
10 6 15 13 10 15 -5 3 -17 -2 -26 -12z"/>
<path d="M2329 4718 c0 -2 -2 -14 -3 -27 -3 -21 -1 -22 9 -8 7 9 16 13 21 9 4
-4 2 1 -5 11 -12 16 -20 21 -22 15z"/>
<path d="M2517 4685 c3 -8 9 -12 14 -9 12 7 11 11 -5 17 -10 4 -13 1 -9 -8z"/>
<path d="M3110 4620 c0 -5 5 -10 10 -10 6 0 10 5 10 10 0 6 -4 10 -10 10 -5 0
-10 -4 -10 -10z"/>
<path d="M1813 4605 c0 -8 4 -15 9 -15 4 0 8 4 8 9 0 6 -4 12 -8 15 -5 3 -9
-1 -9 -9z"/>
<path d="M1890 4599 c0 -5 5 -7 10 -4 6 3 10 8 10 11 0 2 -4 4 -10 4 -5 0 -10
-5 -10 -11z"/>
<path d="M3075 4600 c3 -5 8 -10 11 -10 2 0 4 5 4 10 0 6 -5 10 -11 10 -5 0
-7 -4 -4 -10z"/>
<path d="M3210 4566 c0 -2 7 -7 16 -10 8 -3 12 -2 9 4 -6 10 -25 14 -25 6z"/>
<path d="M3400 4521 c0 -6 5 -12 10 -12 6 -1 15 -3 20 -4 6 -1 13 -3 18 -4 4
-1 0 -5 -8 -11 -8 -5 -11 -12 -7 -17 5 -4 12 -1 16 6 5 7 14 10 20 7 6 -4 8
-12 5 -18 -4 -7 -2 -8 4 -4 19 11 14 22 -15 36 -16 8 -30 14 -33 14 -3 1 -11
5 -17 9 -8 5 -13 4 -13 -2z"/>
<path d="M1553 4494 c1 -21 19 -26 34 -9 4 4 3 5 -4 1 -6 -3 -16 2 -22 11 -9
16 -10 16 -8 -3z"/>
<path d="M1610 4499 c0 -5 5 -7 10 -4 6 3 10 8 10 11 0 2 -4 4 -10 4 -5 0 -10
-5 -10 -11z"/>
<path d="M1465 4461 c-3 -5 -1 -12 5 -16 6 -4 7 -11 4 -17 -4 -7 -2 -8 5 -4 8
6 9 12 2 20 -6 7 -8 16 -4 19 3 4 4 7 0 7 -3 0 -8 -4 -12 -9z"/>
<path d="M2400 4429 c-58 -4 -118 -9 -135 -12 -16 -3 -50 -9 -75 -12 -25 -4
-90 -18 -145 -31 -629 -152 -1144 -612 -1355 -1212 -34 -95 -76 -254 -85 -322
-3 -25 -8 -56 -10 -70 -17 -88 -22 -340 -10 -449 61 -558 326 -1032 762 -1360
67 -50 257 -171 269 -171 2 0 38 -17 81 -38 136 -66 364 -137 503 -157 25 -3
72 -11 105 -16 64 -12 388 -16 420 -6 11 4 45 9 75 12 160 18 382 91 582 191
105 52 302 180 334 215 44 50 42 59 -83 284 -64 116 -126 228 -139 250 -237
428 -395 708 -412 730 -45 56 -142 22 -142 -50 0 -29 86 -188 447 -835 14 -25
39 -70 55 -100 17 -30 48 -85 69 -124 22 -38 36 -72 32 -75 -164 -122 -413
-238 -623 -290 -180 -45 -438 -58 -615 -32 -123 19 -125 19 -213 41 -685 171
-1213 740 -1322 1425 -19 118 -21 156 -21 300 0 477 179 907 515 1238 325 322
754 499 1234 511 94 2 294 -14 339 -28 10 -3 29 -7 43 -10 150 -25 397 -128
572 -237 402 -249 681 -654 784 -1139 14 -63 32 -125 40 -137 28 -44 101 -42
131 3 22 34 19 70 -17 219 -105 437 -325 788 -675 1078 -73 60 -241 163 -360
222 -317 154 -618 215 -955 194z"/>
<path d="M3593 4415 c0 -8 4 -12 8 -9 4 2 9 -2 12 -8 2 -7 7 -10 11 -7 3 3 -2
13 -12 22 -15 14 -19 15 -19 2z"/>
<path d="M3570 4401 c0 -6 4 -13 10 -16 6 -3 7 1 4 9 -7 18 -14 21 -14 7z"/>
<path d="M3653 4387 c14 -11 15 -16 5 -20 -9 -4 -9 -6 -1 -6 23 -2 23 18 1 29
-21 10 -22 10 -5 -3z"/>
<path d="M3696 4327 c3 -10 9 -15 12 -12 3 3 0 11 -7 18 -10 9 -11 8 -5 -6z"/>
<path d="M3810 4280 c0 -5 8 -10 18 -10 14 0 15 -2 2 -10 -11 -7 -11 -10 -2
-10 8 0 10 -5 6 -12 -5 -9 -3 -9 9 1 19 15 15 26 -14 41 -13 7 -19 7 -19 0z"/>
<path d="M1193 4255 c0 -8 4 -12 9 -9 4 3 8 9 8 15 0 5 -4 9 -8 9 -5 0 -9 -7
-9 -15z"/>
<path d="M1127 4246 c-15 -12 -16 -15 -2 -26 13 -11 14 -10 9 4 -3 9 -1 16 5
16 6 0 11 -5 11 -12 0 -6 3 -9 6 -5 3 3 2 12 -3 20 -7 13 -11 13 -26 3z"/>
<path d="M1070 4180 c0 -5 5 -10 10 -10 6 0 10 5 10 10 0 6 -4 10 -10 10 -5 0
-10 -4 -10 -10z"/>
<path d="M3890 4180 c0 -5 5 -10 11 -10 5 0 7 5 4 10 -3 6 -8 10 -11 10 -2 0
-4 -4 -4 -10z"/>
<path d="M3964 4165 c3 -8 1 -15 -5 -15 -6 0 -7 -5 -4 -11 9 -13 15 -7 20 20
2 11 -1 21 -7 21 -5 0 -8 -7 -4 -15z"/>
<path d="M1030 4129 c0 -5 5 -7 10 -4 6 3 10 8 10 11 0 2 -4 4 -10 4 -5 0 -10
-5 -10 -11z"/>
<path d="M4045 4083 c3 -7 1 -13 -5 -13 -6 0 -8 -5 -4 -11 5 -8 9 -8 14 1 5 8
11 3 17 -16 9 -28 10 -28 16 -5 3 13 3 20 0 17 -3 -3 -14 5 -25 17 -11 12 -17
16 -13 10z"/>
<path d="M950 4061 c0 -5 8 -15 18 -22 15 -12 16 -12 5 2 -7 9 -10 19 -6 22 3
4 1 7 -5 7 -7 0 -12 -4 -12 -9z"/>
<path d="M881 4026 c-9 -10 -8 -15 4 -19 9 -4 12 -13 9 -24 -5 -15 -4 -15 4
-3 8 10 8 18 1 27 -6 7 -8 17 -4 23 9 15 -1 12 -14 -4z"/>
<path d="M847 3969 c6 -6 9 -19 6 -28 -4 -14 -3 -14 6 -1 15 21 14 27 -6 35
-14 5 -15 3 -6 -6z"/>
<path d="M4166 3947 c3 -10 9 -15 12 -12 3 3 0 11 -7 18 -10 9 -11 8 -5 -6z"/>
<path d="M798 3927 c-10 -6 -8 -7 4 -4 9 3 18 1 21 -6 2 -7 6 -5 9 4 7 18 -14
21 -34 6z"/>
<path d="M2044 3920 c-12 -5 -29 -19 -38 -32 -15 -20 -16 -153 -16 -1430 0
-1010 3 -1414 11 -1431 24 -52 87 -60 130 -18 l29 30 -2 1420 c-3 1405 -3
1421 -23 1440 -25 24 -63 33 -91 21z"/>
<path d="M2300 3923 c-23 -10 -49 -46 -50 -68 0 -78 27 -91 220 -99 257 -10
433 -61 575 -166 163 -121 233 -289 222 -530 -14 -317 -171 -503 -494 -585
-100 -25 -213 -32 -402 -24 -70 2 -75 1 -97 -25 -26 -29 -29 -51 -14 -90 10
-28 32 -42 76 -51 33 -6 289 -7 319 -1 11 2 43 7 70 10 136 18 287 74 395 147
68 45 177 160 212 221 71 127 106 274 106 444 0 446 -274 729 -788 810 -49 7
-335 14 -350 7z"/>
<path d="M764 3894 c2 -11 -1 -24 -6 -31 -6 -8 -4 -11 9 -9 18 3 20 32 3 50
-5 5 -7 0 -6 -10z"/>
<path d="M685 3771 c-3 -5 0 -13 6 -17 7 -4 9 -3 5 4 -3 5 0 13 6 15 9 4 10 6
1 6 -6 1 -14 -3 -18 -8z"/>
<path d="M4340 3700 c0 -5 7 -7 15 -4 8 4 15 8 15 10 0 2 -7 4 -15 4 -8 0 -15
-4 -15 -10z"/>
<path d="M627 3693 c-13 -12 -7 -22 12 -20 11 0 17 6 14 14 -6 14 -16 17 -26
6z"/>
<path d="M4355 3680 c-3 -5 -1 -10 4 -10 6 0 11 5 11 10 0 6 -2 10 -4 10 -3 0
-8 -4 -11 -10z"/>
<path d="M4370 3620 c0 -5 5 -10 11 -10 5 0 7 5 4 10 -3 6 -8 10 -11 10 -2 0
-4 -4 -4 -10z"/>
<path d="M4396 3587 c3 -10 9 -15 12 -12 3 3 0 11 -7 18 -10 9 -11 8 -5 -6z"/>
<path d="M550 3562 c0 -5 7 -9 15 -9 8 0 12 4 9 9 -3 4 -9 8 -15 8 -5 0 -9 -4
-9 -8z"/>
<path d="M477 3399 c4 -13 8 -18 11 -10 2 7 -1 18 -6 23 -8 8 -9 4 -5 -13z"/>
<path d="M4510 3399 c0 -6 8 -18 18 -26 16 -13 15 -14 -7 -9 -17 3 -21 2 -13
-6 6 -6 18 -8 27 -4 15 5 15 9 4 23 -8 9 -13 19 -11 22 2 3 -1 7 -7 9 -6 2
-11 -2 -11 -9z"/>
<path d="M439 3333 c-10 -11 -10 -14 -1 -9 6 4 12 2 12 -3 0 -6 -5 -11 -12
-11 -6 0 -8 -3 -5 -6 4 -4 13 -2 20 4 8 7 16 11 18 9 2 -1 -2 3 -9 9 -11 10
-11 13 0 17 8 3 8 6 2 6 -6 1 -18 -7 -25 -16z"/>
<path d="M4595 3200 c-3 -5 1 -10 10 -10 9 0 13 5 10 10 -3 6 -8 10 -10 10 -2
0 -7 -4 -10 -10z"/>
<path d="M4576 3177 c3 -10 9 -15 12 -12 3 3 0 11 -7 18 -10 9 -11 8 -5 -6z"/>
<path d="M370 3125 c0 -7 30 -13 34 -7 3 4 -4 9 -15 9 -10 1 -19 0 -19 -2z"/>
<path d="M371 3087 c2 -1 13 -9 24 -17 19 -14 19 -14 6 3 -7 9 -18 17 -24 17
-6 0 -8 -1 -6 -3z"/>
<path d="M4630 3050 c-9 -6 -10 -10 -3 -10 6 0 15 5 18 10 8 12 4 12 -15 0z"/>
<path d="M4628 3002 c-12 -16 -11 -16 6 -2 18 14 19 13 13 -4 -6 -16 -5 -17 8
-6 18 15 19 17 1 23 -8 3 -20 -2 -28 -11z"/>
<path d="M375 2980 c3 -5 8 -10 11 -10 2 0 4 5 4 10 0 6 -5 10 -11 10 -5 0 -7
-4 -4 -10z"/>
<path d="M4650 2965 c-10 -12 -10 -18 0 -30 13 -16 35 -10 24 6 -3 5 -10 7
-15 4 -13 -9 -11 9 3 23 7 7 9 12 6 12 -3 0 -11 -7 -18 -15z"/>
<path d="M325 2861 c-3 -5 0 -13 6 -17 7 -4 9 -3 5 4 -3 5 0 13 6 15 9 4 10 6
1 6 -6 1 -14 -3 -18 -8z"/>
<path d="M300 2805 c-7 -8 -11 -15 -9 -16 31 -6 37 -5 35 7 -3 22 -12 25 -26
9z"/>
<path d="M299 2753 c-7 -10 -9 -15 -5 -11 5 4 16 2 25 -5 14 -10 14 -10 3 5
-10 13 -10 17 0 21 8 3 8 6 2 6 -6 1 -18 -7 -25 -16z"/>
<path d="M4675 2660 c-3 -5 -1 -10 4 -10 6 0 11 5 11 10 0 6 -2 10 -4 10 -3 0
-8 -4 -11 -10z"/>
<path d="M4693 2615 c0 -8 4 -12 9 -9 5 3 6 10 3 15 -9 13 -12 11 -12 -6z"/>
<path d="M4690 2311 c0 -5 5 -13 10 -16 6 -3 10 -2 10 4 0 5 -4 13 -10 16 -5
3 -10 2 -10 -4z"/>
<path d="M310 2300 c0 -5 5 -10 11 -10 5 0 7 5 4 10 -3 6 -8 10 -11 10 -2 0
-4 -4 -4 -10z"/>
<path d="M4674 2279 c-4 -8 -3 -9 4 -5 18 11 14 -5 -5 -28 l-18 -21 25 20 c14
11 26 20 28 21 1 1 -4 7 -12 13 -11 9 -16 9 -22 0z"/>
<path d="M335 2260 c-3 -5 -1 -10 4 -10 6 0 11 5 11 10 0 6 -2 10 -4 10 -3 0
-8 -4 -11 -10z"/>
<path d="M339 2193 c-13 -16 -12 -17 4 -4 9 7 17 15 17 17 0 8 -8 3 -21 -13z"/>
<path d="M4667 2159 c7 -7 15 -10 18 -7 3 3 -2 9 -12 12 -14 6 -15 5 -6 -5z"/>
<path d="M330 2130 c0 -5 0 -13 1 -16 0 -4 -5 -10 -11 -14 -7 -4 -8 -10 -4
-13 5 -3 15 1 22 9 7 8 8 14 3 14 -6 0 -8 7 -5 15 4 8 3 15 0 15 -3 0 -6 -4
-6 -10z"/>
<path d="M4665 2132 c3 -3 0 -11 -7 -19 -8 -11 -7 -12 5 -7 21 7 29 31 11 31
-8 0 -12 -3 -9 -5z"/>
<path d="M4595 1920 c-3 -5 -1 -10 4 -10 6 0 11 5 11 10 0 6 -2 10 -4 10 -3 0
-8 -4 -11 -10z"/>
<path d="M380 1835 c15 -18 26 -19 33 -2 3 8 -4 14 -20 15 -22 2 -24 0 -13
-13z"/>
<path d="M4577 1837 c-3 -7 1 -21 8 -30 15 -21 22 -22 22 -3 0 8 -5 14 -11 13
-6 -1 -10 6 -8 16 3 20 -4 23 -11 4z"/>
<path d="M496 1554 c-3 -8 0 -16 6 -20 7 -5 8 -2 3 6 -6 9 -4 12 7 8 8 -4 15
-1 15 6 0 17 -25 16 -31 0z"/>
<path d="M4470 1560 c-13 -8 -12 -10 3 -10 9 0 17 5 17 10 0 12 -1 12 -20 0z"/>
<path d="M4471 1531 c-10 -6 -9 -10 3 -14 8 -3 18 -2 21 3 8 13 -9 20 -24 11z"/>
<path d="M525 1480 c4 -6 11 -8 16 -5 14 9 11 15 -7 15 -8 0 -12 -5 -9 -10z"/>
<path d="M4384 1422 c4 -3 14 -7 22 -8 9 -1 13 0 10 4 -4 3 -14 7 -22 8 -9 1
-13 0 -10 -4z"/>
<path d="M4394 1389 c-3 -6 -2 -15 3 -20 5 -5 9 -1 9 11 0 23 -2 24 -12 9z"/>
<path d="M4335 1309 c-4 -5 2 -6 11 -2 12 4 15 3 10 -5 -10 -16 -1 -15 12 1 8
10 6 13 -8 14 -11 1 -22 -2 -25 -8z"/>
<path d="M652 1280 c-16 -27 -16 -27 18 -45 26 -13 29 -13 24 0 -3 8 -10 12
-15 9 -5 -3 -9 0 -9 5 0 6 6 11 13 11 8 0 9 3 1 8 -6 4 -13 13 -15 20 -3 8 -8
5 -17 -8z m18 -14 c0 -3 -4 -8 -10 -11 -5 -3 -10 -1 -10 4 0 6 5 11 10 11 6 0
10 -2 10 -4z"/>
<path d="M707 1239 c7 -7 15 -10 18 -7 3 3 -2 9 -12 12 -14 6 -15 5 -6 -5z"/>
<path d="M4140 1043 c12 -25 25 -29 36 -12 4 7 1 10 -7 7 -8 -3 -20 2 -27 11
-11 14 -11 13 -2 -6z"/>
<path d="M874 1036 c1 -8 5 -18 8 -22 4 -3 5 1 4 10 -1 8 -5 18 -8 22 -4 3 -5
-1 -4 -10z"/>
<path d="M846 1019 c10 -11 28 -25 39 -31 11 -6 5 4 -14 21 -39 35 -53 41 -25
10z"/>
<path d="M4113 1025 c0 -8 4 -15 9 -15 4 0 8 4 8 9 0 6 -4 12 -8 15 -5 3 -9
-1 -9 -9z"/>
<path d="M3998 913 c7 -3 16 -2 19 1 4 3 -2 6 -13 5 -11 0 -14 -3 -6 -6z"/>
<path d="M4024 893 c-4 -13 -11 -20 -20 -16 -8 3 -14 0 -14 -6 0 -6 7 -11 15
-11 16 0 40 38 30 48 -3 3 -8 -3 -11 -15z"/>
<path d="M1126 768 c3 -5 10 -6 15 -3 13 9 11 12 -6 12 -8 0 -12 -4 -9 -9z"/>
<path d="M1165 760 c-3 -5 -1 -10 4 -10 6 0 11 5 11 10 0 6 -2 10 -4 10 -3 0
-8 -4 -11 -10z"/>
<path d="M1277 679 c7 -7 15 -10 18 -7 3 3 -2 9 -12 12 -14 6 -15 5 -6 -5z"/>
<path d="M1351 635 c-1 -6 4 -16 11 -23 7 -7 8 -12 4 -12 -5 0 -3 -6 4 -14 6
-8 18 -12 26 -9 12 4 11 9 -6 23 -11 9 -16 21 -12 25 4 5 2 5 -5 2 -6 -4 -14
-1 -16 5 -3 7 -6 8 -6 3z"/>
<path d="M3516 577 c3 -10 9 -15 12 -12 3 3 0 11 -7 18 -10 9 -11 8 -5 -6z"/>
<path d="M1461 565 c-1 -21 14 -34 29 -25 13 8 13 10 -2 10 -9 0 -19 6 -21 13
-3 6 -6 8 -6 2z"/>
<path d="M3479 553 c-12 -16 -12 -17 2 -6 9 7 20 9 24 5 5 -4 5 -1 1 6 -9 16
-11 15 -27 -5z"/>
<path d="M1566 501 c-3 -5 1 -14 8 -20 10 -9 16 -9 21 -1 4 6 3 10 -2 9 -20
-3 -27 2 -13 11 9 6 10 10 3 10 -6 0 -14 -4 -17 -9z"/>
<path d="M1650 480 c0 -5 5 -10 11 -10 5 0 7 5 4 10 -3 6 -8 10 -11 10 -2 0
-4 -4 -4 -10z"/>
<path d="M3326 482 c-3 -5 1 -9 9 -9 8 0 12 4 9 9 -3 4 -7 8 -9 8 -2 0 -6 -4
-9 -8z"/>
<path d="M3365 480 c-3 -5 -3 -10 2 -10 4 0 2 -4 -6 -9 -8 -5 -9 -11 -3 -15 5
-3 15 1 22 9 9 11 9 15 1 15 -7 0 -9 5 -6 10 3 6 4 10 1 10 -3 0 -8 -4 -11
-10z"/>
<path d="M3291 453 c-5 -10 -12 -17 -15 -15 -3 1 -6 0 -6 -3 0 -25 2 -28 11
-12 6 9 14 15 20 12 5 -4 6 2 2 11 -5 13 -3 15 7 9 9 -5 11 -4 6 3 -10 16 -13
15 -25 -5z"/>
<path d="M1867 391 c-3 -13 -1 -18 9 -14 7 2 10 11 7 19 -7 19 -10 18 -16 -5z"/>
<path d="M3035 391 c-3 -6 3 -14 13 -20 14 -7 19 -6 19 4 0 7 -7 11 -15 7 -10
-3 -13 -1 -8 6 4 7 5 12 2 12 -3 0 -7 -4 -11 -9z"/>
<path d="M2065 360 c-3 -6 1 -7 9 -4 18 7 21 14 7 14 -6 0 -13 -4 -16 -10z"/>
<path d="M2989 368 c-5 -18 -6 -38 -1 -34 7 8 12 36 6 36 -2 0 -4 -1 -5 -2z"/>
<path d="M2133 333 c-3 -7 -9 -11 -13 -8 -5 3 -12 0 -16 -6 -4 -7 -3 -9 4 -5
6 3 13 2 16 -3 5 -8 27 -8 46 -1 3 1 8 2 13 1 4 0 7 4 7 9 0 13 -17 13 -25 0
-7 -12 -25 -4 -25 11 0 6 4 8 9 4 5 -3 12 -2 15 3 3 5 -2 9 -10 9 -9 0 -18 -6
-21 -14z"/>
<path d="M2786 342 c-3 -5 1 -9 9 -9 8 0 12 4 9 9 -3 4 -7 8 -9 8 -2 0 -6 -4
-9 -8z"/>
<path d="M2730 325 c-7 -9 -11 -17 -9 -20 3 -2 10 5 17 15 14 24 10 26 -8 5z"/>
<path d="M2256 318 c7 -10 34 -10 34 0 0 4 -9 8 -19 8 -11 0 -17 -4 -15 -8z"/>
<path d="M2456 318 c3 -5 10 -6 15 -3 13 9 11 12 -6 12 -8 0 -12 -4 -9 -9z"/>
<path d="M2641 294 c0 -11 3 -14 6 -6 3 7 2 16 -1 19 -3 4 -6 -2 -5 -13z"/>
<path d="M153 2035 c0 -8 4 -12 9 -9 4 3 8 9 8 15 0 5 -4 9 -8 9 -5 0 -9 -7
-9 -15z"/>
<path d="M2441 4902 c10 -16 16 -18 31 -9 10 7 18 16 18 21 0 6 -5 5 -12 -2
-8 -8 -17 -8 -30 -1 -17 9 -18 8 -7 -9z"/>
<path d="M2715 4900 c3 -5 13 -6 22 -3 11 4 14 3 9 -5 -5 -8 -2 -10 8 -6 9 3
16 1 16 -5 0 -6 5 -11 12 -11 8 0 7 6 -4 16 -17 17 -72 29 -63 14z"/>
<path d="M2115 4890 c-3 -6 1 -7 9 -4 18 7 21 14 7 14 -6 0 -13 -4 -16 -10z"/>
<path d="M2790 4896 c0 -2 7 -9 15 -16 9 -7 15 -8 15 -2 0 5 -7 12 -15 16 -8
3 -15 4 -15 2z"/>
<path d="M2056 4880 c5 -8 9 -18 9 -22 0 -12 8 -13 27 -2 12 7 14 14 8 24 -8
12 -10 12 -10 -4 0 -19 0 -19 -22 0 -13 11 -18 13 -12 4z"/>
<path d="M1855 4840 c-3 -5 -1 -10 4 -10 6 0 11 5 11 10 0 6 -2 10 -4 10 -3 0
-8 -4 -11 -10z"/>
<path d="M1920 4840 c-9 -6 -10 -10 -3 -10 6 0 15 5 18 10 8 12 4 12 -15 0z"/>
<path d="M1755 4821 c-3 -5 -2 -12 3 -15 5 -3 9 1 9 9 0 17 -3 19 -12 6z"/>
<path d="M1650 4760 c0 -5 5 -10 10 -10 6 0 10 5 10 10 0 6 -4 10 -10 10 -5 0
-10 -4 -10 -10z"/>
<path d="M3305 4759 c-3 -4 2 -6 10 -5 21 3 28 13 10 13 -9 0 -18 -4 -20 -8z"/>
<path d="M1535 4740 c3 -5 8 -10 11 -10 2 0 4 5 4 10 0 6 -5 10 -11 10 -5 0
-7 -4 -4 -10z"/>
<path d="M3453 4716 c-7 -8 -8 -18 -2 -27 5 -8 9 -12 10 -9 0 3 2 15 5 28 4
25 3 26 -13 8z"/>
<path d="M3541 4671 c-17 -11 -5 -32 14 -24 9 3 15 -1 15 -10 0 -9 7 -14 17
-13 20 3 28 22 14 31 -7 4 -9 -1 -5 -12 4 -12 -2 -9 -18 9 -16 19 -27 25 -37
19z"/>
<path d="M1373 4629 c8 -13 15 -15 29 -8 20 11 24 29 7 29 -5 0 -7 -4 -4 -10
3 -5 -1 -10 -10 -10 -9 0 -14 4 -11 8 3 5 -1 9 -8 9 -11 0 -12 -4 -3 -18z"/>
<path d="M1290 4597 c0 -5 10 -5 21 -2 16 5 19 4 14 -5 -5 -9 -4 -11 4 -6 6 4
9 11 6 16 -7 11 -45 9 -45 -3z"/>
<path d="M3710 4601 c0 -6 4 -13 10 -16 6 -3 7 1 4 9 -7 18 -14 21 -14 7z"/>
<path d="M1070 4486 c0 -2 7 -7 16 -10 8 -3 12 -2 9 4 -6 10 -25 14 -25 6z"/>
<path d="M3921 4436 c-8 -10 -9 -16 -1 -21 5 -3 10 0 10 9 0 8 6 17 13 19 7 4
8 6 1 6 -6 1 -17 -5 -23 -13z"/>
<path d="M3941 4423 c-1 -20 36 -36 43 -18 3 8 0 17 -6 21 -7 4 -8 3 -4 -4 4
-7 1 -12 -8 -12 -8 0 -17 6 -19 13 -4 9 -6 9 -6 0z"/>
<path d="M840 4260 c-11 -7 -11 -10 -2 -10 7 0 10 -5 7 -10 -4 -6 -11 -7 -17
-4 -6 4 -8 2 -4 -4 3 -6 -1 -15 -10 -20 -14 -8 -12 -9 10 -9 18 0 26 4 22 12
-2 7 -2 16 2 19 5 6 13 36 9 36 -1 0 -9 -5 -17 -10z"/>
<path d="M4238 4163 c7 -3 16 -2 19 1 4 3 -2 6 -13 5 -11 0 -14 -3 -6 -6z"/>
<path d="M723 4138 c-3 -7 -1 -8 5 -4 16 10 15 -6 0 -24 -7 -8 -2 -6 12 5 14
11 26 20 28 21 1 1 -6 4 -18 7 -11 3 -23 0 -27 -5z"/>
<path d="M4265 4110 c-3 -6 1 -7 9 -4 18 7 21 14 7 14 -6 0 -13 -4 -16 -10z"/>
<path d="M4307 4093 c3 -7 6 -13 8 -13 2 0 5 6 8 13 3 8 -1 14 -8 14 -7 0 -11
-6 -8 -14z"/>
<path d="M653 4041 c-9 -11 -23 -17 -32 -14 -12 3 -11 1 2 -7 10 -7 19 -10 20
-8 1 1 11 13 21 26 11 12 16 22 12 22 -3 0 -14 -9 -23 -19z"/>
<path d="M4343 4041 c-13 -21 1 -43 23 -34 17 6 19 24 2 21 -7 -2 -12 5 -10
15 4 22 0 22 -15 -2z"/>
<path d="M4392 4010 c2 -8 -3 -14 -10 -12 -10 2 -10 -2 -2 -18 13 -24 22 -27
13 -3 -4 10 -2 14 4 10 13 -8 11 18 -1 30 -4 4 -6 1 -4 -7z"/>
<path d="M605 3980 c-4 -6 -11 -7 -17 -4 -7 4 -8 2 -4 -4 12 -20 -4 -34 -22
-20 -12 9 -12 7 2 -9 10 -13 23 -20 28 -17 5 3 7 9 4 12 -4 3 1 16 9 29 9 13
13 23 11 23 -3 0 -8 -5 -11 -10z"/>
<path d="M4435 3960 c3 -5 8 -10 11 -10 2 0 4 5 4 10 0 6 -5 10 -11 10 -5 0
-7 -4 -4 -10z"/>
<path d="M453 3805 c0 -8 4 -12 9 -9 5 3 6 10 3 15 -9 13 -12 11 -12 -6z"/>
<path d="M410 3721 c0 -14 29 -21 36 -9 4 7 3 8 -4 4 -7 -4 -12 -2 -12 3 0 6
-4 11 -10 11 -5 0 -10 -4 -10 -9z"/>
<path d="M4750 3386 c0 -2 7 -7 16 -10 8 -3 12 -2 9 4 -6 10 -25 14 -25 6z"/>
<path d="M244 3315 c-12 -8 -24 -11 -28 -8 -3 3 -6 1 -6 -5 0 -17 15 -15 41 8
28 23 23 27 -7 5z"/>
<path d="M181 3215 c0 -5 3 -15 7 -22 5 -9 12 -6 21 10 13 20 13 21 -1 9 -13
-10 -17 -10 -21 0 -3 7 -6 9 -6 3z"/>
<path d="M4842 3040 c-7 -11 -8 -20 -3 -20 9 0 24 30 18 36 -1 2 -8 -6 -15
-16z"/>
<path d="M147 3044 c-7 -8 3 -34 13 -34 9 0 8 26 -1 35 -3 3 -8 2 -12 -1z"/>
<path d="M125 2960 c-3 -5 -1 -10 4 -10 6 0 11 5 11 10 0 6 -2 10 -4 10 -3 0
-8 -4 -11 -10z"/>
<path d="M4844 2920 c0 -17 2 -30 5 -31 3 0 13 -2 22 -4 9 -1 16 3 16 11 0 7
-5 10 -10 7 -6 -4 -8 5 -4 23 3 16 4 23 1 16 -4 -9 -10 -10 -18 -3 -9 8 -12 3
-12 -19z"/>
<path d="M4862 2813 c-2 -22 0 -24 13 -13 18 15 19 26 2 33 -8 3 -14 -4 -15
-20z"/>
<path d="M4910 2760 c0 -5 5 -10 11 -10 5 0 7 5 4 10 -3 6 -8 10 -11 10 -2 0
-4 -4 -4 -10z"/>
<path d="M4900 2621 c0 -6 4 -13 10 -16 6 -3 7 1 4 9 -7 18 -14 21 -14 7z"/>
<path d="M92 2547 c-7 -8 -7 -18 -2 -27 7 -11 3 -20 -13 -32 -20 -15 -20 -16
-2 -15 11 1 20 -4 21 -10 1 -7 2 -19 3 -25 1 -9 4 -9 11 2 5 9 5 19 -1 26 -7
8 -6 14 1 19 8 5 8 11 1 19 -6 7 -9 22 -6 34 4 25 2 27 -13 9z"/>
<path d="M70 2440 c0 -5 5 -10 11 -10 5 0 7 5 4 10 -3 6 -8 10 -11 10 -2 0 -4
-4 -4 -10z"/>
<path d="M100 2259 c0 -5 5 -7 10 -4 6 3 10 8 10 11 0 2 -4 4 -10 4 -5 0 -10
-5 -10 -11z"/>
<path d="M4895 2220 c3 -5 8 -10 11 -10 2 0 4 5 4 10 0 6 -5 10 -11 10 -5 0
-7 -4 -4 -10z"/>
<path d="M4869 2219 c-1 -2 -2 -19 -3 -36 -2 -32 7 -43 19 -23 3 6 1 10 -6 10
-8 0 -5 5 5 13 16 12 16 14 2 26 -9 8 -17 12 -17 10z"/>
<path d="M4853 2071 c0 -11 5 -18 9 -15 4 3 5 11 1 19 -7 21 -12 19 -10 -4z"/>
<path d="M137 1967 c-3 -8 1 -14 8 -14 7 0 11 6 8 14 -3 7 -6 13 -8 13 -2 0
-5 -6 -8 -13z"/>
<path d="M4850 1939 c0 -5 5 -7 10 -4 6 3 10 8 10 11 0 2 -4 4 -10 4 -5 0 -10
-5 -10 -11z"/>
<path d="M172 1857 c10 -8 19 -23 21 -33 1 -10 7 -25 11 -33 7 -11 5 -13 -9
-7 -15 5 -16 4 -6 -8 7 -8 9 -21 5 -27 -4 -7 -3 -9 3 -6 14 9 23 46 13 52 -5
3 -7 16 -6 29 2 18 -4 27 -23 35 -23 10 -24 10 -9 -2z"/>
<path d="M224 1688 c3 -15 26 -23 26 -8 0 6 -4 9 -9 6 -5 -4 -12 -1 -14 4 -3
6 -4 5 -3 -2z"/>
<path d="M4730 1645 c-9 -10 -9 -15 -1 -15 6 0 11 5 11 11 0 5 5 7 12 3 7 -4
8 -3 4 4 -9 15 -11 15 -26 -3z"/>
<path d="M250 1625 c-11 -13 -11 -16 1 -13 8 2 13 -3 11 -10 -1 -8 2 -11 7 -8
5 4 12 2 16 -4 3 -5 -2 -10 -12 -11 -13 0 -12 -3 7 -11 24 -10 24 -10 5 -18
-16 -7 -17 -9 -3 -9 20 -1 32 15 18 24 -6 4 -8 10 -5 15 3 5 -2 15 -10 24 -9
8 -15 18 -15 21 3 15 -8 14 -20 0z"/>
<path d="M4750 1619 c0 -5 5 -7 10 -4 6 3 10 8 10 11 0 2 -4 4 -10 4 -5 0 -10
-5 -10 -11z"/>
<path d="M4711 1602 c-8 -15 -7 -21 3 -25 10 -4 12 1 9 16 -4 17 -3 19 6 7 5
-8 13 -12 16 -9 3 4 -1 12 -9 18 -12 10 -17 8 -25 -7z"/>
<path d="M293 1517 c0 -7 9 -14 20 -14 11 -1 18 -1 16 0 -2 2 -11 8 -20 15
-12 9 -16 9 -16 -1z"/>
<path d="M4690 1515 c-14 -8 -20 -14 -14 -15 5 0 19 7 30 15 24 18 16 19 -16
0z"/>
<path d="M300 1479 c0 -5 5 -7 10 -4 6 3 10 8 10 11 0 2 -4 4 -10 4 -5 0 -10
-5 -10 -11z"/>
<path d="M4690 1479 c0 -5 5 -7 10 -4 6 3 10 8 10 11 0 2 -4 4 -10 4 -5 0 -10
-5 -10 -11z"/>
<path d="M403 1308 c-2 -18 0 -20 7 -8 12 18 13 30 2 30 -4 0 -9 -10 -9 -22z"/>
<path d="M4594 1299 c-3 -6 -2 -15 3 -20 5 -5 9 -1 9 11 0 23 -2 24 -12 9z"/>
<path d="M4565 1280 c-3 -5 -1 -10 4 -10 6 0 11 5 11 10 0 6 -2 10 -4 10 -3 0
-8 -4 -11 -10z"/>
<path d="M494 1136 c1 -8 5 -18 8 -22 4 -3 5 1 4 10 -1 8 -5 18 -8 22 -4 3 -5
-1 -4 -10z"/>
<path d="M590 1040 c0 -5 5 -10 11 -10 5 0 7 5 4 10 -3 6 -8 10 -11 10 -2 0
-4 -4 -4 -10z"/>
<path d="M4393 975 c0 -8 4 -12 9 -9 5 3 6 10 3 15 -9 13 -12 11 -12 -6z"/>
<path d="M710 880 c0 -6 7 -10 15 -10 8 0 15 2 15 4 0 2 -7 6 -15 10 -8 3 -15
1 -15 -4z"/>
<path d="M880 730 c11 -7 11 -10 2 -10 -7 0 -10 -5 -6 -11 4 -8 9 -7 15 2 9
15 3 29 -14 29 -7 0 -6 -4 3 -10z"/>
<path d="M4146 718 c3 -5 10 -6 15 -3 13 9 11 12 -6 12 -8 0 -12 -4 -9 -9z"/>
<path d="M900 698 c0 -4 8 -8 18 -8 15 0 15 -2 2 -11 -12 -8 -12 -10 -1 -7 22
6 21 34 0 34 -11 0 -19 -4 -19 -8z"/>
<path d="M4105 680 c3 -5 8 -10 11 -10 2 0 4 5 4 10 0 6 -5 10 -11 10 -5 0 -7
-4 -4 -10z"/>
<path d="M4006 603 c-6 -14 -5 -15 5 -6 7 7 10 15 7 18 -3 3 -9 -2 -12 -12z"/>
<path d="M976 598 c3 -5 10 -6 15 -3 13 9 11 12 -6 12 -8 0 -12 -4 -9 -9z"/>
<path d="M1010 581 c0 -6 4 -13 10 -16 6 -3 7 1 4 9 -7 18 -14 21 -14 7z"/>
<path d="M1037 579 c7 -7 15 -10 18 -7 3 3 -2 9 -12 12 -14 6 -15 5 -6 -5z"/>
<path d="M3927 569 c7 -7 15 -10 18 -7 3 3 -2 9 -12 12 -14 6 -15 5 -6 -5z"/>
<path d="M3870 536 c0 -2 8 -10 18 -17 15 -13 16 -12 3 4 -13 16 -21 21 -21
13z"/>
<path d="M1135 509 c-4 -6 -5 -12 -2 -15 2 -3 7 2 10 11 7 17 1 20 -8 4z"/>
<path d="M3816 505 c4 -8 11 -15 16 -15 6 0 5 6 -2 15 -7 8 -14 15 -16 15 -2
0 -1 -7 2 -15z"/>
<path d="M1150 498 c0 -2 9 -11 20 -21 11 -9 20 -13 20 -7 0 5 -9 14 -20 20
-11 6 -20 9 -20 8z"/>
<path d="M3712 439 c-8 -12 -9 -18 -4 -15 6 3 12 3 15 -1 2 -5 2 -2 0 6 -2 9
2 11 13 7 14 -5 15 -4 4 9 -15 18 -13 19 -28 -6z"/>
<path d="M1290 427 c0 -10 6 -16 13 -14 6 1 11 -4 9 -12 -3 -12 0 -12 12 -1 9
7 16 15 16 18 0 3 -3 2 -7 -1 -3 -4 -15 0 -25 10 -17 15 -18 15 -18 0z"/>
<path d="M3672 418 c-15 -15 -15 -28 -1 -28 5 0 8 4 5 9 -4 5 0 11 6 14 7 2
10 7 7 10 -3 4 -11 1 -17 -5z"/>
<path d="M3543 345 c-13 -12 -23 -25 -23 -29 0 -4 7 0 16 9 9 9 22 14 29 11 8
-3 11 2 8 15 -3 10 -6 19 -7 18 0 -1 -11 -11 -23 -24z"/>
<path d="M1577 273 c-4 -3 -7 -11 -7 -17 0 -6 5 -5 12 2 6 6 9 14 7 17 -3 3
-9 2 -12 -2z"/>
<path d="M1740 216 c0 -2 8 -10 18 -17 15 -13 16 -12 3 4 -13 16 -21 21 -21
13z"/>
<path d="M1827 201 c-3 -12 0 -18 9 -17 22 3 26 12 10 25 -11 9 -15 7 -19 -8z"/>
<path d="M1750 176 c0 -2 8 -10 18 -17 15 -13 16 -12 3 4 -13 16 -21 21 -21
13z"/>
<path d="M1845 170 c-16 -7 -17 -9 -3 -9 9 -1 20 4 23 9 7 11 7 11 -20 0z"/>
<path d="M3021 158 c-1 -12 -7 -16 -18 -12 -15 5 -16 4 -3 -5 17 -12 35 1 27
21 -4 9 -6 8 -6 -4z"/>
<path d="M3146 158 c3 -5 10 -6 15 -3 13 9 11 12 -6 12 -8 0 -12 -4 -9 -9z"/>
<path d="M2874 128 c-15 -19 -16 -20 -1 -9 9 8 17 9 17 3 0 -9 8 -9 39 -3 6 2
-21 31 -29 31 -4 0 -15 -10 -26 -22z m41 2 c3 -6 -1 -7 -9 -4 -18 7 -21 14 -7
14 6 0 13 -4 16 -10z"/>
<path d="M2935 140 c3 -5 11 -10 16 -10 6 0 7 5 4 10 -3 6 -11 10 -16 10 -6 0
-7 -4 -4 -10z"/>
<path d="M2843 133 c-15 -5 -17 -23 -4 -23 5 0 11 7 15 15 3 8 4 15 3 14 -1 0
-8 -3 -14 -6z"/>
<path d="M2133 105 c0 -8 4 -12 9 -9 5 3 6 10 3 15 -9 13 -12 11 -12 -6z"/>
<path d="M2160 106 c0 -2 7 -7 16 -10 8 -3 12 -2 9 4 -6 10 -25 14 -25 6z"/>
</g>
</svg>
